<?xml version="1.0" encoding="UTF-8"?>
<!DOCTYPE svg PUBLIC "-//W3C//DTD SVG 1.1//EN" "http://www.w3.org/Graphics/SVG/1.1/DTD/svg11.dtd">
<svg xmlns="http://www.w3.org/2000/svg" version="1.1" width="752px" height="569px" style="shape-rendering:geometricPrecision; text-rendering:geometricPrecision; image-rendering:optimizeQuality; fill-rule:evenodd; clip-rule:evenodd" xmlns:xlink="http://www.w3.org/1999/xlink">
<g><path style="opacity:1" fill="#f9f6ef" d="M 709.5,22.5 C 710.833,23.1667 710.833,23.1667 709.5,22.5 Z"/></g>
<g><path style="opacity:1" fill="#f9f6ef" d="M 715.5,24.5 C 716.573,25.2506 716.74,26.2506 716,27.5C 715.517,26.552 715.351,25.552 715.5,24.5 Z"/></g>
<g><path style="opacity:1" fill="#fbf7ef" d="M 716.5,28.5 C 717.833,29.1667 717.833,29.1667 716.5,28.5 Z"/></g>
<g><path style="opacity:1" fill="#f8f7ef" d="M 716.5,30.5 C 717.525,30.8966 717.692,31.5632 717,32.5C 716.536,31.9056 716.369,31.2389 716.5,30.5 Z"/></g>
<g><path style="opacity:1" fill="#459092" d="M 449.5,333.5 C 461.607,321.898 473.941,309.732 486.5,297C 486.272,296.601 485.938,296.435 485.5,296.5C 493.974,288.865 502.641,281.365 511.5,274C 528.735,261.249 546.069,248.749 563.5,236.5C 575.417,229.036 586.417,220.369 596.5,210.5C 608.376,201.468 618.209,190.801 626,178.5C 614.738,188.431 602.905,197.598 590.5,206C 561.167,224.667 531.833,243.333 502.5,262C 484.38,274.883 467.714,289.383 452.5,305.5C 428.032,329.629 407.365,356.629 390.5,386.5C 389.833,384.5 389.167,382.5 388.5,380.5C 382.54,309.525 404.54,249.025 454.5,199C 455.094,198.536 455.761,198.369 456.5,198.5C 475.795,181.273 497.128,166.106 520.5,153C 519.906,152.536 519.239,152.369 518.5,152.5C 519.29,151.599 520.29,150.932 521.5,150.5C 521.56,151.043 521.893,151.376 522.5,151.5C 549.789,137.571 577.123,123.738 604.5,110C 603.906,109.536 603.239,109.369 602.5,109.5C 628.113,96.3614 652.447,81.1948 675.5,64C 690.546,51.9617 703.046,37.795 713,21.5C 726.227,91.8066 716.56,158.807 684,222.5C 673.841,241.003 661.008,257.503 645.5,272C 637.506,278.498 628.506,283.164 618.5,286C 606.98,289.304 595.314,291.971 583.5,294C 592.552,295.865 601.718,296.698 611,296.5C 618.271,296.67 625.438,296.004 632.5,294.5C 632.833,294.833 633.167,295.167 633.5,295.5C 618.392,316.109 600.725,334.276 580.5,350C 553.46,368.863 524.793,385.196 494.5,399C 477.916,405.751 461.582,413.085 445.5,421C 419.172,436.142 403.005,458.642 397,488.5C 395.499,497.175 393.999,505.842 392.5,514.5C 383.167,520.167 373.833,525.833 364.5,531.5C 364.618,499.081 371.452,468.081 385,438.5C 400.995,399.79 422.495,364.79 449.5,333.5 Z"/></g>
<g><path style="opacity:1" fill="#f7f4ef" d="M 718.5,45.5 C 719.833,46.1667 719.833,46.1667 718.5,45.5 Z"/></g>
<g><path style="opacity:1" fill="#fcf8ef" d="M 688.5,48.5 C 689.833,49.1667 689.833,49.1667 688.5,48.5 Z"/></g>
<g><path style="opacity:1" fill="#f9f5ed" d="M 719.5,54.5 C 720.833,55.1667 720.833,55.1667 719.5,54.5 Z"/></g>
<g><path style="opacity:1" fill="#fbfbef" d="M 722.5,54.5 C 723.833,55.1667 723.833,55.1667 722.5,54.5 Z"/></g>
<g><path style="opacity:1" fill="#fdf8ef" d="M 284.5,55.5 C 285.833,56.1667 285.833,56.1667 284.5,55.5 Z"/></g>
<g><path style="opacity:1" fill="#fdf8ef" d="M 317.5,56.5 C 317.897,55.475 318.563,55.3083 319.5,56C 318.906,56.4643 318.239,56.631 317.5,56.5 Z"/></g>
<g><path style="opacity:1" fill="#fdfaec" d="M 270.5,56.5 C 271.833,57.1667 271.833,57.1667 270.5,56.5 Z"/></g>
<g><path style="opacity:1" fill="#f8f8f0" d="M 719.5,57.5 C 720.525,57.8966 720.692,58.5632 720,59.5C 719.536,58.9056 719.369,58.2389 719.5,57.5 Z"/></g>
<g><path style="opacity:1" fill="#cf5717" d="M 330.5,65.5 C 330.649,66.552 330.483,67.552 330,68.5C 329.771,65.5424 328.604,63.0424 326.5,61C 306.923,60.5347 287.589,60.368 268.5,60.5C 268.918,59.7784 269.584,59.2784 270.5,59C 289.167,58.3333 307.833,58.3333 326.5,59C 329.222,60.2725 330.556,62.4392 330.5,65.5 Z"/></g>
<g><path style="opacity:1" fill="#d56f28" d="M 268.5,60.5 C 287.589,60.368 306.923,60.5347 326.5,61C 328.604,63.0424 329.771,65.5424 330,68.5C 330.483,67.552 330.649,66.552 330.5,65.5C 333.884,77.8911 337.217,90.3911 340.5,103C 356.622,106.649 371.955,112.149 386.5,119.5C 385.262,119.81 385.262,120.31 386.5,121C 387.167,121.667 387.833,121.667 388.5,121C 401.236,110.729 414.57,101.563 428.5,93.5C 429.492,93.3284 430.158,93.6618 430.5,94.5C 430.062,94.4346 429.728,94.6012 429.5,95C 432.854,98.5566 436.521,101.723 440.5,104.5C 441.386,105.325 441.719,106.325 441.5,107.5C 442.552,107.351 443.552,107.517 444.5,108C 445.878,109.713 447.545,111.047 449.5,112C 457.022,118.524 464.189,125.357 471,132.5C 471.667,134.167 471.667,135.833 471,137.5C 467,144.167 463,150.833 459,157.5C 458.51,158.793 458.343,160.127 458.5,161.5C 453.204,168.131 447.537,174.465 441.5,180.5C 436.792,184.207 432.792,188.54 429.5,193.5C 425.336,196.832 421.669,200.665 418.5,205C 416.775,204.251 415.108,203.085 413.5,201.5C 409.274,194.602 403.941,188.602 397.5,183.5C 367.78,155.92 332.447,142.92 291.5,144.5C 295.982,143.674 300.649,143.174 305.5,143C 295.071,142.153 284.738,142.82 274.5,145C 275.448,145.483 276.448,145.649 277.5,145.5C 222.296,155.86 183.462,186.86 161,238.5C 157.517,248.449 154.684,258.449 152.5,268.5C 152.649,267.448 152.483,266.448 152,265.5C 149.657,277.729 148.991,290.063 150,302.5C 150.171,294.989 150.671,287.655 151.5,280.5C 148.854,329.954 165.854,370.954 202.5,403.5C 206.241,407.218 210.241,410.718 214.5,414C 217.727,416.112 221.06,417.945 224.5,419.5C 242.839,431.28 262.839,438.28 284.5,440.5C 282.473,440.338 280.473,440.505 278.5,441C 289.472,442.082 300.472,442.749 311.5,443C 312.872,443.402 314.205,443.902 315.5,444.5C 316.795,443.902 318.128,443.402 319.5,443C 317.167,442.667 314.833,442.333 312.5,442C 318.226,441.323 323.893,440.323 329.5,439C 328.552,438.517 327.552,438.351 326.5,438.5C 340.324,434.89 353.657,430.557 366.5,425.5C 360.709,437.707 356.209,450.374 353,463.5C 347.714,485.093 343.547,506.76 340.5,528.5C 340.649,527.448 340.483,526.448 340,525.5C 339.433,528.168 338.933,530.834 338.5,533.5C 332.31,533.177 326.31,533.51 320.5,534.5C 316.921,534.089 314.754,532.089 314,528.5C 311.157,516.13 308.157,503.796 305,491.5C 304.5,490.333 303.667,489.5 302.5,489C 288.731,488.763 275.064,487.597 261.5,485.5C 259.528,486.305 258.028,487.639 257,489.5C 249.888,500.278 242.388,510.778 234.5,521C 233.127,521.875 231.627,522.375 230,522.5C 212.787,515.144 195.62,507.644 178.5,500C 175.613,498.291 174.279,495.791 174.5,492.5C 177.109,478.182 179.276,463.848 181,449.5C 175.864,445.362 170.697,441.362 165.5,437.5C 159.815,431.315 153.981,425.315 148,419.5C 141.625,421.886 135.125,423.886 128.5,425.5C 128.265,424.903 127.765,424.57 127,424.5C 120.268,426.613 113.434,428.279 106.5,429.5C 104.074,429.596 101.907,428.93 100,427.5C 92.8733,412.581 85.2067,397.914 77,383.5C 76.3333,381.167 76.3333,378.833 77,376.5C 80.7625,372.915 84.2625,369.248 87.5,365.5C 94.6527,358.179 101.653,350.679 108.5,343C 105.638,328.602 103.638,314.102 102.5,299.5C 89.0751,293.288 75.7417,286.788 62.5,280C 61.6667,279.167 60.8333,278.333 60,277.5C 59.3333,274.167 59.3333,270.833 60,267.5C 63.076,251.605 66.576,235.938 70.5,220.5C 70.369,221.239 70.5357,221.906 71,222.5C 71.8333,220.333 73.3333,218.833 75.5,218C 89.8333,217.667 104.167,217.333 118.5,217C 125.316,204.369 132.65,192.035 140.5,180C 140.272,179.601 139.938,179.435 139.5,179.5C 140.242,177.574 141.242,175.741 142.5,174C 136.186,161.2 129.52,148.7 122.5,136.5C 122.298,134.011 122.798,131.677 124,129.5C 137.204,117.294 150.704,105.461 164.5,94C 170.233,91.2645 174.9,92.4311 178.5,97.5C 177.668,98.3285 178.001,99.1618 179.5,100C 188.527,106.182 197.194,112.849 205.5,120C 207.5,120.667 209.5,120.667 211.5,120C 220.607,115.742 229.941,112.076 239.5,109C 238.906,108.536 238.239,108.369 237.5,108.5C 243.789,106.672 250.122,104.672 256.5,102.5C 259.664,89.8438 262.831,77.1771 266,64.5C 266.2,62.6803 267.034,61.347 268.5,60.5 Z"/></g>
<g><path style="opacity:1" fill="#fdf7ef" d="M 331.5,61.5 C 332.833,62.1667 332.833,62.1667 331.5,61.5 Z"/></g>
<g><path style="opacity:1" fill="#fcf7ee" d="M 332.5,63.5 C 333.525,63.8966 333.692,64.5632 333,65.5C 332.536,64.9056 332.369,64.2389 332.5,63.5 Z"/></g>
<g><path style="opacity:1" fill="#fcf5ee" d="M 263.5,64.5 C 264.833,65.1667 264.833,65.1667 263.5,64.5 Z"/></g>
<g><path style="opacity:1" fill="#fef6ee" d="M 332.5,66.5 C 333.833,67.1667 333.833,67.1667 332.5,66.5 Z"/></g>
<g><path style="opacity:1" fill="#f9f5ef" d="M 720.5,66.5 C 721.833,67.1667 721.833,67.1667 720.5,66.5 Z"/></g>
<g><path style="opacity:1" fill="#f7f5ee" d="M 720.5,71.5 C 721.598,72.6009 721.765,73.9343 721,75.5C 720.51,74.2068 720.343,72.8734 720.5,71.5 Z"/></g>
<g><path style="opacity:1" fill="#f8f7e7" d="M 261.5,73.5 C 262.833,74.1667 262.833,74.1667 261.5,73.5 Z"/></g>
<g><path style="opacity:1" fill="#f9f8ed" d="M 334.5,74.5 C 335.833,75.1667 335.833,75.1667 334.5,74.5 Z"/></g>
<g><path style="opacity:1" fill="#f8f7ef" d="M 655.5,75.5 C 656.833,76.1667 656.833,76.1667 655.5,75.5 Z"/></g>
<g><path style="opacity:1" fill="#fbf9ef" d="M 653.5,76.5 C 654.833,77.1667 654.833,77.1667 653.5,76.5 Z"/></g>
<g><path style="opacity:1" fill="#f6f7ef" d="M 720.5,76.5 C 721.525,76.8966 721.692,77.5632 721,78.5C 720.536,77.9056 720.369,77.2389 720.5,76.5 Z"/></g>
<g><path style="opacity:1" fill="#f4f4ef" d="M 649.5,79.5 C 650.833,80.1667 650.833,80.1667 649.5,79.5 Z"/></g>
<g><path style="opacity:1" fill="#f8f7ef" d="M 720.5,79.5 C 721.525,79.8966 721.692,80.5632 721,81.5C 720.536,80.9056 720.369,80.2389 720.5,79.5 Z"/></g>
<g><path style="opacity:1" fill="#f7f6ec" d="M 647.5,80.5 C 648.833,81.1667 648.833,81.1667 647.5,80.5 Z"/></g>
<g><path style="opacity:1" fill="#f9f9ed" d="M 259.5,81.5 C 260.525,81.8966 260.692,82.5632 260,83.5C 259.536,82.9056 259.369,82.2389 259.5,81.5 Z"/></g>
<g><path style="opacity:1" fill="#f6f5ef" d="M 644.5,82.5 C 645.833,83.1667 645.833,83.1667 644.5,82.5 Z"/></g>
<g><path style="opacity:1" fill="#fdf8ee" d="M 336.5,82.5 C 337.525,82.8966 337.692,83.5632 337,84.5C 336.536,83.9056 336.369,83.2389 336.5,82.5 Z"/></g>
<g><path style="opacity:1" fill="#f7f6ef" d="M 720.5,83.5 C 721.598,84.6009 721.765,85.9343 721,87.5C 720.51,86.2068 720.343,84.8734 720.5,83.5 Z"/></g>
<g><path style="opacity:1" fill="#fbf4ed" d="M 258.5,84.5 C 259.525,84.8966 259.692,85.5632 259,86.5C 258.536,85.9056 258.369,85.2389 258.5,84.5 Z"/></g>
<g><path style="opacity:1" fill="#fcf9ef" d="M 337.5,85.5 C 338.573,86.2506 338.74,87.2506 338,88.5C 337.517,87.552 337.351,86.552 337.5,85.5 Z"/></g>
<g><path style="opacity:1" fill="#f9f6ef" d="M 637.5,86.5 C 638.833,87.1667 638.833,87.1667 637.5,86.5 Z"/></g>
<g><path style="opacity:1" fill="#fcf6ee" d="M 257.5,89.5 C 258.525,89.8966 258.692,90.5632 258,91.5C 257.536,90.9056 257.369,90.2389 257.5,89.5 Z"/></g>
<g><path style="opacity:1" fill="#fef8ef" d="M 169.5,90.5 C 170.833,91.1667 170.833,91.1667 169.5,90.5 Z"/></g>
<g><path style="opacity:1" fill="#fcf6ee" d="M 423.5,91.5 C 424.601,90.4017 425.934,90.235 427.5,91C 426.207,91.49 424.873,91.6567 423.5,91.5 Z"/></g>
<g><path style="opacity:1" fill="#faf5ef" d="M 720.5,90.5 C 721.833,91.1667 721.833,91.1667 720.5,90.5 Z"/></g>
<g><path style="opacity:1" fill="#fef8ef" d="M 339.5,92.5 C 338.833,91.1667 338.833,91.1667 339.5,92.5 Z"/></g>
<g><path style="opacity:1" fill="#fbf7ef" d="M 429.5,91.5 C 430.833,92.1667 430.833,92.1667 429.5,91.5 Z"/></g>
<g><path style="opacity:1" fill="#fcf8e9" d="M 256.5,93.5 C 257.833,94.1667 257.833,94.1667 256.5,93.5 Z"/></g>
<g><path style="opacity:1" fill="#fdf5ed" d="M 339.5,92.5 C 340.573,93.2506 340.74,94.2506 340,95.5C 339.517,94.552 339.351,93.552 339.5,92.5 Z"/></g>
<g><path style="opacity:1" fill="#fbf5ef" d="M 720.5,93.5 C 721.833,94.1667 721.833,94.1667 720.5,93.5 Z"/></g>
<g><path style="opacity:1" fill="#fef9ef" d="M 156.5,97.5 C 157.833,98.1667 157.833,98.1667 156.5,97.5 Z"/></g>
<g><path style="opacity:1" fill="#fcf5ec" d="M 255.5,97.5 C 256.525,97.8966 256.692,98.5632 256,99.5C 255.536,98.9056 255.369,98.2389 255.5,97.5 Z"/></g>
<g><path style="opacity:1" fill="#fef9ee" d="M 156.5,98.5 C 155.833,99.1667 155.833,99.1667 156.5,98.5 Z"/></g>
<g><path style="opacity:1" fill="#f6f4ee" d="M 719.5,98.5 C 720.525,98.8966 720.692,99.5632 720,100.5C 719.536,99.9056 719.369,99.2389 719.5,98.5 Z"/></g>
<g><path style="opacity:1" fill="#fef9ef" d="M 152.5,100.5 C 153.833,101.167 153.833,101.167 152.5,100.5 Z"/></g>
<g><path style="opacity:1" fill="#f4f7ef" d="M 613.5,100.5 C 614.833,101.167 614.833,101.167 613.5,100.5 Z"/></g>
<g><path style="opacity:1" fill="#fbf7ee" d="M 341.5,102.5 C 341.897,101.475 342.563,101.308 343.5,102C 342.906,102.464 342.239,102.631 341.5,102.5 Z"/></g>
<g><path style="opacity:1" fill="#fef7ef" d="M 248.5,102.5 C 249.833,103.167 249.833,103.167 248.5,102.5 Z"/></g>
<g><path style="opacity:1" fill="#fdf7ef" d="M 243.5,103.5 C 244.833,104.167 244.833,104.167 243.5,103.5 Z"/></g>
<g><path style="opacity:1" fill="#f9f2ea" d="M 245.5,103.5 C 246.833,104.167 246.833,104.167 245.5,103.5 Z"/></g>
<g><path style="opacity:1" fill="#fef7ef" d="M 403.5,103.5 C 404.833,104.167 404.833,104.167 403.5,103.5 Z"/></g>
<g><path style="opacity:1" fill="#fcfcee" d="M 405.5,103.5 C 406.833,104.167 406.833,104.167 405.5,103.5 Z"/></g>
<g><path style="opacity:1" fill="#f9f8ef" d="M 241.5,104.5 C 242.833,105.167 242.833,105.167 241.5,104.5 Z"/></g>
<g><path style="opacity:1" fill="#fdf6ee" d="M 352.5,105.5 C 352.897,104.475 353.563,104.308 354.5,105C 353.906,105.464 353.239,105.631 352.5,105.5 Z"/></g>
<g><path style="opacity:1" fill="#fcf8ed" d="M 445.5,104.5 C 446.833,105.167 446.833,105.167 445.5,104.5 Z"/></g>
<g><path style="opacity:1" fill="#fbfbef" d="M 192.5,105.5 C 193.833,106.167 193.833,106.167 192.5,105.5 Z"/></g>
<g><path style="opacity:1" fill="#fcf7ee" d="M 237.5,106.5 C 237.897,105.475 238.563,105.308 239.5,106C 238.906,106.464 238.239,106.631 237.5,106.5 Z"/></g>
<g><path style="opacity:1" fill="#fcf7ee" d="M 356.5,105.5 C 357.833,106.167 357.833,106.167 356.5,105.5 Z"/></g>
<g><path style="opacity:1" fill="#fcf8ef" d="M 233.5,107.5 C 233.897,106.475 234.563,106.308 235.5,107C 234.906,107.464 234.239,107.631 233.5,107.5 Z"/></g>
<g><path style="opacity:1" fill="#fdf7ed" d="M 359.5,107.5 C 359.897,106.475 360.563,106.308 361.5,107C 360.906,107.464 360.239,107.631 359.5,107.5 Z"/></g>
<g><path style="opacity:1" fill="#fcf7ee" d="M 230.5,108.5 C 230.897,107.475 231.563,107.308 232.5,108C 231.906,108.464 231.239,108.631 230.5,108.5 Z"/></g>
<g><path style="opacity:1" fill="#fdf8ef" d="M 363.5,107.5 C 364.833,108.167 364.833,108.167 363.5,107.5 Z"/></g>
<g><path style="opacity:1" fill="#f8f8ef" d="M 600.5,107.5 C 601.833,108.167 601.833,108.167 600.5,107.5 Z"/></g>
<g><path style="opacity:1" fill="#d45e2d" d="M 428.5,93.5 C 414.57,101.563 401.236,110.729 388.5,121C 387.833,121.667 387.167,121.667 386.5,121C 385.262,120.31 385.262,119.81 386.5,119.5C 398.216,111.964 409.549,103.798 420.5,95C 423.081,92.8414 425.747,92.3414 428.5,93.5 Z"/></g>
<g><path style="opacity:1" fill="#f7f6ee" d="M 597.5,108.5 C 598.833,109.167 598.833,109.167 597.5,108.5 Z"/></g>
<g><path style="opacity:1" fill="#fbf7ed" d="M 371.5,110.5 C 372.833,111.167 372.833,111.167 371.5,110.5 Z"/></g>
<g><path style="opacity:1" fill="#f8f6ef" d="M 718.5,111.5 C 719.525,111.897 719.692,112.563 719,113.5C 718.536,112.906 718.369,112.239 718.5,111.5 Z"/></g>
<g><path style="opacity:1" fill="#f8f4ed" d="M 376.5,112.5 C 377.833,113.167 377.833,113.167 376.5,112.5 Z"/></g>
<g><path style="opacity:1" fill="#fdf8ee" d="M 379.5,113.5 C 380.833,114.167 380.833,114.167 379.5,113.5 Z"/></g>
<g><path style="opacity:1" fill="#fbf6ee" d="M 381.5,114.5 C 382.833,115.167 382.833,115.167 381.5,114.5 Z"/></g>
<g><path style="opacity:1" fill="#d35b2a" d="M 178.5,97.5 C 186.833,103.5 195.167,109.5 203.5,115.5C 204.914,117.054 206.581,118.388 208.5,119.5C 217.813,114.841 227.479,111.174 237.5,108.5C 238.239,108.369 238.906,108.536 239.5,109C 229.941,112.076 220.607,115.742 211.5,120C 209.5,120.667 207.5,120.667 205.5,120C 197.194,112.849 188.527,106.182 179.5,100C 178.001,99.1618 177.668,98.3285 178.5,97.5 Z"/></g>
<g><path style="opacity:1" fill="#fdf7ef" d="M 203.5,114.5 C 204.833,115.167 204.833,115.167 203.5,114.5 Z"/></g>
<g><path style="opacity:1" fill="#fcf9ef" d="M 218.5,112.5 C 219.833,113.167 219.833,113.167 218.5,112.5 Z"/></g>
<g><path style="opacity:1" fill="#fef9ee" d="M 221.5,111.5 C 222.833,112.167 222.833,112.167 221.5,111.5 Z"/></g>
<g><path style="opacity:1" fill="#fdf9ef" d="M 199.5,110.5 C 200.833,111.167 200.833,111.167 199.5,110.5 Z"/></g>
<g><path style="opacity:1" fill="#fef6ee" d="M 230.5,108.5 C 229.833,109.167 229.833,109.167 230.5,108.5 Z"/></g>
<g><path style="opacity:1" fill="#fdf6ed" d="M 384.5,115.5 C 385.833,116.167 385.833,116.167 384.5,115.5 Z"/></g>
<g><path style="opacity:1" fill="#fcf7ef" d="M 389.5,115.5 C 390.833,116.167 390.833,116.167 389.5,115.5 Z"/></g>
<g><path style="opacity:1" fill="#f8f8ee" d="M 207.5,116.5 C 208.833,117.167 208.833,117.167 207.5,116.5 Z"/></g>
<g><path style="opacity:1" fill="#fbf6ee" d="M 463.5,120.5 C 464.833,121.167 464.833,121.167 463.5,120.5 Z"/></g>
<g><path style="opacity:1" fill="#f8f7ef" d="M 717.5,120.5 C 718.525,120.897 718.692,121.563 718,122.5C 717.536,121.906 717.369,121.239 717.5,120.5 Z"/></g>
<g><path style="opacity:1" fill="#d56434" d="M 430.5,94.5 C 441.229,103.901 452.229,112.901 463.5,121.5C 465.502,124.334 468.002,126.667 471,128.5C 473.786,131.967 474.12,135.634 472,139.5C 467.24,146.741 462.74,154.074 458.5,161.5C 458.343,160.127 458.51,158.793 459,157.5C 463,150.833 467,144.167 471,137.5C 471.667,135.833 471.667,134.167 471,132.5C 464.189,125.357 457.022,118.524 449.5,112C 447.545,111.047 445.878,109.713 444.5,108C 443.552,107.517 442.552,107.351 441.5,107.5C 441.719,106.325 441.386,105.325 440.5,104.5C 436.521,101.723 432.854,98.5566 429.5,95C 429.728,94.6012 430.062,94.4346 430.5,94.5 Z"/></g>
<g><path style="opacity:1" fill="#fdf5ee" d="M 470.5,125.5 C 469.761,125.631 469.094,125.464 468.5,125C 469.437,124.308 470.103,124.475 470.5,125.5 Z"/></g>
<g><path style="opacity:1" fill="#faf7ee" d="M 566.5,124.5 C 567.833,125.167 567.833,125.167 566.5,124.5 Z"/></g>
<g><path style="opacity:1" fill="#fefdef" d="M 470.5,125.5 C 471.833,126.167 471.833,126.167 470.5,125.5 Z"/></g>
<g><path style="opacity:1" fill="#faf3ee" d="M 564.5,125.5 C 565.833,126.167 565.833,126.167 564.5,125.5 Z"/></g>
<g><path style="opacity:1" fill="#2d7579" d="M 602.5,109.5 C 603.239,109.369 603.906,109.536 604.5,110C 577.123,123.738 549.789,137.571 522.5,151.5C 521.893,151.376 521.56,151.043 521.5,150.5C 548.371,136.565 575.371,122.898 602.5,109.5 Z"/></g>
<g><path style="opacity:1" fill="#f6f6ed" d="M 716.5,127.5 C 717.833,128.167 717.833,128.167 716.5,127.5 Z"/></g>
<g><path style="opacity:1" fill="#fcf6ef" d="M 548.5,134.5 C 548.897,133.475 549.563,133.308 550.5,134C 549.906,134.464 549.239,134.631 548.5,134.5 Z"/></g>
<g><path style="opacity:1" fill="#faf7f0" d="M 474.5,135.5 C 475.525,135.897 475.692,136.563 475,137.5C 474.536,136.906 474.369,136.239 474.5,135.5 Z"/></g>
<g><path style="opacity:1" fill="#fbf8ef" d="M 122.5,136.5 C 121.833,137.167 121.833,137.167 122.5,136.5 Z"/></g>
<g><path style="opacity:1" fill="#fbf6ee" d="M 122.5,139.5 C 123.833,140.167 123.833,140.167 122.5,139.5 Z"/></g>
<g><path style="opacity:1" fill="#fcf7ef" d="M 473.5,139.5 C 474.833,140.167 474.833,140.167 473.5,139.5 Z"/></g>
<g><path style="opacity:1" fill="#fdf6ee" d="M 473.5,140.5 C 472.833,141.167 472.833,141.167 473.5,140.5 Z"/></g>
<g><path style="opacity:1" fill="#fbf7ef" d="M 532.5,140.5 C 533.833,141.167 533.833,141.167 532.5,140.5 Z"/></g>
<g><path style="opacity:1" fill="#f5f5ee" d="M 534.5,140.5 C 535.833,141.167 535.833,141.167 534.5,140.5 Z"/></g>
<g><path style="opacity:1" fill="#fef8ee" d="M 123.5,142.5 C 124.833,143.167 124.833,143.167 123.5,142.5 Z"/></g>
<g><path style="opacity:1" fill="#d0521b" d="M 291.5,144.5 C 286.859,145.127 282.193,145.46 277.5,145.5C 276.448,145.649 275.448,145.483 274.5,145C 284.738,142.82 295.071,142.153 305.5,143C 300.649,143.174 295.982,143.674 291.5,144.5 Z"/></g>
<g><path style="opacity:1" fill="#f6f6ef" d="M 713.5,143.5 C 714.525,143.897 714.692,144.563 714,145.5C 713.536,144.906 713.369,144.239 713.5,143.5 Z"/></g>
<g><path style="opacity:1" fill="#f7f3ee" d="M 527.5,144.5 C 528.833,145.167 528.833,145.167 527.5,144.5 Z"/></g>
<g><path style="opacity:1" fill="#f8f6ee" d="M 281.5,146.5 C 282.833,147.167 282.833,147.167 281.5,146.5 Z"/></g>
<g><path style="opacity:1" fill="#fcf5ee" d="M 283.5,147.5 C 283.897,146.475 284.563,146.308 285.5,147C 284.906,147.464 284.239,147.631 283.5,147.5 Z"/></g>
<g><path style="opacity:1" fill="#fdf6ee" d="M 286.5,147.5 C 286.897,146.475 287.563,146.308 288.5,147C 287.906,147.464 287.239,147.631 286.5,147.5 Z"/></g>
<g><path style="opacity:1" fill="#fdf8ee" d="M 289.5,147.5 C 289.897,146.475 290.563,146.308 291.5,147C 290.906,147.464 290.239,147.631 289.5,147.5 Z"/></g>
<g><path style="opacity:1" fill="#faf4ec" d="M 314.5,147.5 C 314.897,146.475 315.563,146.308 316.5,147C 315.906,147.464 315.239,147.631 314.5,147.5 Z"/></g>
<g><path style="opacity:1" fill="#fefaef" d="M 273.5,147.5 C 274.833,148.167 274.833,148.167 273.5,147.5 Z"/></g>
<g><path style="opacity:1" fill="#fbf8ed" d="M 276.5,147.5 C 277.833,148.167 277.833,148.167 276.5,147.5 Z"/></g>
<g><path style="opacity:1" fill="#fbf7ef" d="M 318.5,147.5 C 319.833,148.167 319.833,148.167 318.5,147.5 Z"/></g>
<g><path style="opacity:1" fill="#fbf9ed" d="M 320.5,148.5 C 320.897,147.475 321.563,147.308 322.5,148C 321.906,148.464 321.239,148.631 320.5,148.5 Z"/></g>
<g><path style="opacity:1" fill="#f3f7ee" d="M 712.5,147.5 C 713.833,148.167 713.833,148.167 712.5,147.5 Z"/></g>
<g><path style="opacity:1" fill="#fdf6ef" d="M 273.5,148.5 C 272.399,149.598 271.066,149.765 269.5,149C 270.793,148.51 272.127,148.343 273.5,148.5 Z"/></g>
<g><path style="opacity:1" fill="#fbf4ec" d="M 324.5,149.5 C 325.601,148.402 326.934,148.235 328.5,149C 327.207,149.49 325.873,149.657 324.5,149.5 Z"/></g>
<g><path style="opacity:1" fill="#f9f4ec" d="M 467.5,148.5 C 468.833,149.167 468.833,149.167 467.5,148.5 Z"/></g>
<g><path style="opacity:1" fill="#fbf6ed" d="M 264.5,150.5 C 265.601,149.402 266.934,149.235 268.5,150C 267.207,150.49 265.873,150.657 264.5,150.5 Z"/></g>
<g><path style="opacity:1" fill="#fdf7ee" d="M 331.5,150.5 C 331.897,149.475 332.563,149.308 333.5,150C 332.906,150.464 332.239,150.631 331.5,150.5 Z"/></g>
<g><path style="opacity:1" fill="#faf5ee" d="M 260.5,151.5 C 261.251,150.427 262.251,150.26 263.5,151C 262.552,151.483 261.552,151.649 260.5,151.5 Z"/></g>
<g><path style="opacity:1" fill="#faf4ed" d="M 334.5,151.5 C 334.897,150.475 335.563,150.308 336.5,151C 335.906,151.464 335.239,151.631 334.5,151.5 Z"/></g>
<g><path style="opacity:1" fill="#fbf6ed" d="M 257.5,151.5 C 258.833,152.167 258.833,152.167 257.5,151.5 Z"/></g>
<g><path style="opacity:1" fill="#fcf7ee" d="M 254.5,153.5 C 254.897,152.475 255.563,152.308 256.5,153C 255.906,153.464 255.239,153.631 254.5,153.5 Z"/></g>
<g><path style="opacity:1" fill="#fef9ef" d="M 342.5,152.5 C 343.833,153.167 343.833,153.167 342.5,152.5 Z"/></g>
<g><path style="opacity:1" fill="#fcf9ef" d="M 251.5,153.5 C 252.833,154.167 252.833,154.167 251.5,153.5 Z"/></g>
<g><path style="opacity:1" fill="#f9f8ee" d="M 344.5,153.5 C 345.833,154.167 345.833,154.167 344.5,153.5 Z"/></g>
<g><path style="opacity:1" fill="#fafaee" d="M 347.5,154.5 C 346.833,153.167 346.833,153.167 347.5,154.5 Z"/></g>
<g><path style="opacity:1" fill="#f9f6ef" d="M 711.5,153.5 C 712.833,154.167 712.833,154.167 711.5,153.5 Z"/></g>
<g><path style="opacity:1" fill="#f8f8ee" d="M 347.5,154.5 C 348.833,155.167 348.833,155.167 347.5,154.5 Z"/></g>
<g><path style="opacity:1" fill="#fef9ee" d="M 463.5,155.5 C 464.833,156.167 464.833,156.167 463.5,155.5 Z"/></g>
<g><path style="opacity:1" fill="#fbf7ec" d="M 353.5,156.5 C 354.833,157.167 354.833,157.167 353.5,156.5 Z"/></g>
<g><path style="opacity:1" fill="#fdf9ef" d="M 240.5,157.5 C 241.833,158.167 241.833,158.167 240.5,157.5 Z"/></g>
<g><path style="opacity:1" fill="#fdf7ec" d="M 357.5,158.5 C 356.761,158.631 356.094,158.464 355.5,158C 356.437,157.308 357.103,157.475 357.5,158.5 Z"/></g>
<g><path style="opacity:1" fill="#fbfaef" d="M 462.5,157.5 C 463.833,158.167 463.833,158.167 462.5,157.5 Z"/></g>
<g><path style="opacity:1" fill="#faf5ef" d="M 710.5,157.5 C 711.833,158.167 711.833,158.167 710.5,157.5 Z"/></g>
<g><path style="opacity:1" fill="#faf9ef" d="M 238.5,158.5 C 239.833,159.167 239.833,159.167 238.5,158.5 Z"/></g>
<g><path style="opacity:1" fill="#fcf9ee" d="M 357.5,158.5 C 358.833,159.167 358.833,159.167 357.5,158.5 Z"/></g>
<g><path style="opacity:1" fill="#fdf6ef" d="M 462.5,158.5 C 461.833,159.167 461.833,159.167 462.5,158.5 Z"/></g>
<g><path style="opacity:1" fill="#fcf7ed" d="M 236.5,159.5 C 237.833,160.167 237.833,160.167 236.5,159.5 Z"/></g>
<g><path style="opacity:1" fill="#faf9ed" d="M 359.5,159.5 C 360.833,160.167 360.833,160.167 359.5,159.5 Z"/></g>
<g><path style="opacity:1" fill="#fbf8ec" d="M 234.5,160.5 C 235.833,161.167 235.833,161.167 234.5,160.5 Z"/></g>
<g><path style="opacity:1" fill="#fcf7ed" d="M 362.5,160.5 C 363.833,161.167 363.833,161.167 362.5,160.5 Z"/></g>
<g><path style="opacity:1" fill="#fef9ed" d="M 460.5,160.5 C 461.833,161.167 461.833,161.167 460.5,160.5 Z"/></g>
<g><path style="opacity:1" fill="#f9f7ef" d="M 709.5,160.5 C 710.525,160.897 710.692,161.563 710,162.5C 709.536,161.906 709.369,161.239 709.5,160.5 Z"/></g>
<g><path style="opacity:1" fill="#fbf6ef" d="M 135.5,164.5 C 136.833,165.167 136.833,165.167 135.5,164.5 Z"/></g>
<g><path style="opacity:1" fill="#fefaef" d="M 458.5,164.5 C 459.833,165.167 459.833,165.167 458.5,164.5 Z"/></g>
<g><path style="opacity:1" fill="#f9f9ef" d="M 492.5,164.5 C 493.833,165.167 493.833,165.167 492.5,164.5 Z"/></g>
<g><path style="opacity:1" fill="#fbf9ef" d="M 225.5,165.5 C 226.833,166.167 226.833,166.167 225.5,165.5 Z"/></g>
<g><path style="opacity:1" fill="#fcf8ef" d="M 371.5,165.5 C 372.833,166.167 372.833,166.167 371.5,165.5 Z"/></g>
<g><path style="opacity:1" fill="#f9f7ef" d="M 708.5,164.5 C 709.525,164.897 709.692,165.563 709,166.5C 708.536,165.906 708.369,165.239 708.5,164.5 Z"/></g>
<g><path style="opacity:1" fill="#faf9e9" d="M 373.5,166.5 C 374.833,167.167 374.833,167.167 373.5,166.5 Z"/></g>
<g><path style="opacity:1" fill="#f7f6ee" d="M 707.5,167.5 C 708.525,167.897 708.692,168.563 708,169.5C 707.536,168.906 707.369,168.239 707.5,167.5 Z"/></g>
<g><path style="opacity:1" fill="#f9f8ef" d="M 218.5,169.5 C 219.833,170.167 219.833,170.167 218.5,169.5 Z"/></g>
<g><path style="opacity:1" fill="#fef9ed" d="M 377.5,169.5 C 378.833,170.167 378.833,170.167 377.5,169.5 Z"/></g>
<g><path style="opacity:1" fill="#fef8ef" d="M 453.5,169.5 C 454.833,170.167 454.833,170.167 453.5,169.5 Z"/></g>
<g><path style="opacity:1" fill="#fcf7eb" d="M 379.5,170.5 C 380.833,171.167 380.833,171.167 379.5,170.5 Z"/></g>
<g><path style="opacity:1" fill="#f8f5ed" d="M 706.5,170.5 C 707.525,170.897 707.692,171.563 707,172.5C 706.536,171.906 706.369,171.239 706.5,170.5 Z"/></g>
<g><path style="opacity:1" fill="#fcf7ef" d="M 214.5,172.5 C 215.833,173.167 215.833,173.167 214.5,172.5 Z"/></g>
<g><path style="opacity:1" fill="#fcf8ef" d="M 382.5,172.5 C 383.833,173.167 383.833,173.167 382.5,172.5 Z"/></g>
<g><path style="opacity:1" fill="#fef9ef" d="M 450.5,172.5 C 451.833,173.167 451.833,173.167 450.5,172.5 Z"/></g>
<g><path style="opacity:1" fill="#fef8ef" d="M 212.5,173.5 C 213.833,174.167 213.833,174.167 212.5,173.5 Z"/></g>
<g><path style="opacity:1" fill="#fbfcef" d="M 481.5,173.5 C 482.833,174.167 482.833,174.167 481.5,173.5 Z"/></g>
<g><path style="opacity:1" fill="#fdf9ed" d="M 212.5,174.5 C 211.833,175.167 211.833,175.167 212.5,174.5 Z"/></g>
<g><path style="opacity:1" fill="#35797b" d="M 518.5,152.5 C 519.239,152.369 519.906,152.536 520.5,153C 497.128,166.106 475.795,181.273 456.5,198.5C 474.633,179.765 495.299,164.432 518.5,152.5 Z"/></g>
<g><path style="opacity:1" fill="#f8f8ee" d="M 705.5,173.5 C 706.525,173.897 706.692,174.563 706,175.5C 705.536,174.906 705.369,174.239 705.5,173.5 Z"/></g>
<g><path style="opacity:1" fill="#f6f6ef" d="M 704.5,178.5 C 705.833,179.167 705.833,179.167 704.5,178.5 Z"/></g>
<g><path style="opacity:1" fill="#f9f5ec" d="M 203.5,180.5 C 204.833,181.167 204.833,181.167 203.5,180.5 Z"/></g>
<g><path style="opacity:1" fill="#fcf9ef" d="M 441.5,180.5 C 442.833,181.167 442.833,181.167 441.5,180.5 Z"/></g>
<g><path style="opacity:1" fill="#fdf7ef" d="M 467.5,181.5 C 468.833,182.167 468.833,182.167 467.5,181.5 Z"/></g>
<g><path style="opacity:1" fill="#fef9ec" d="M 440.5,182.5 C 441.833,183.167 441.833,183.167 440.5,182.5 Z"/></g>
<g><path style="opacity:1" fill="#fdfcef" d="M 133.5,183.5 C 134.833,184.167 134.833,184.167 133.5,183.5 Z"/></g>
<g><path style="opacity:1" fill="#feffef" d="M 397.5,183.5 C 396.833,184.167 396.833,184.167 397.5,183.5 Z"/></g>
<g><path style="opacity:1" fill="#fbfbea" d="M 133.5,184.5 C 132.833,185.167 132.833,185.167 133.5,184.5 Z"/></g>
<g><path style="opacity:1" fill="#f7fbef" d="M 701.5,186.5 C 702.833,187.167 702.833,187.167 701.5,186.5 Z"/></g>
<g><path style="opacity:1" fill="#fdf7ee" d="M 130.5,187.5 C 131.833,188.167 131.833,188.167 130.5,187.5 Z"/></g>
<g><path style="opacity:1" fill="#fdf8ef" d="M 401.5,189.5 C 400.833,188.167 400.833,188.167 401.5,189.5 Z"/></g>
<g><path style="opacity:1" fill="#fefbeb" d="M 434.5,188.5 C 435.833,189.167 435.833,189.167 434.5,188.5 Z"/></g>
<g><path style="opacity:1" fill="#f7f6ef" d="M 700.5,188.5 C 701.833,189.167 701.833,189.167 700.5,188.5 Z"/></g>
<g><path style="opacity:1" fill="#fcf8ef" d="M 401.5,189.5 C 402.167,189.5 402.5,189.833 402.5,190.5C 402.167,190.167 401.833,189.833 401.5,189.5 Z"/></g>
<g><path style="opacity:1" fill="#fbf9ef" d="M 193.5,190.5 C 194.833,191.167 194.833,191.167 193.5,190.5 Z"/></g>
<g><path style="opacity:1" fill="#faf6ef" d="M 402.5,190.5 C 403.833,191.167 403.833,191.167 402.5,190.5 Z"/></g>
<g><path style="opacity:1" fill="#d96b3f" d="M 139.5,179.5 C 139.938,179.435 140.272,179.601 140.5,180C 132.65,192.035 125.316,204.369 118.5,217C 104.167,217.333 89.8333,217.667 75.5,218C 73.3333,218.833 71.8333,220.333 71,222.5C 70.5357,221.906 70.369,221.239 70.5,220.5C 71.6728,218.496 73.3395,216.996 75.5,216C 89.8333,215.667 104.167,215.333 118.5,215C 124.168,202.214 131.168,190.381 139.5,179.5 Z"/></g>
<g><path style="opacity:1" fill="#fcf6ef" d="M 429.5,193.5 C 430.833,194.167 430.833,194.167 429.5,193.5 Z"/></g>
<g><path style="opacity:1" fill="#fefaef" d="M 428.5,195.5 C 429.833,196.167 429.833,196.167 428.5,195.5 Z"/></g>
<g><path style="opacity:1" fill="#fbfaef" d="M 609.5,195.5 C 610.833,196.167 610.833,196.167 609.5,195.5 Z"/></g>
<g><path style="opacity:1" fill="#fbf7ee" d="M 428.5,196.5 C 427.833,197.167 427.833,197.167 428.5,196.5 Z"/></g>
<g><path style="opacity:1" fill="#fdf8ef" d="M 409.5,198.5 C 410.833,199.167 410.833,199.167 409.5,198.5 Z"/></g>
<g><path style="opacity:1" fill="#fbfcef" d="M 425.5,198.5 C 426.833,199.167 426.833,199.167 425.5,198.5 Z"/></g>
<g><path style="opacity:1" fill="#faf4ee" d="M 696.5,199.5 C 697.833,200.167 697.833,200.167 696.5,199.5 Z"/></g>
<g><path style="opacity:1" fill="#f8f5ee" d="M 225.5,200.5 C 226.833,201.167 226.833,201.167 225.5,200.5 Z"/></g>
<g><path style="opacity:1" fill="#f9f5f0" d="M 222.5,202.5 C 222.897,201.475 223.563,201.308 224.5,202C 223.906,202.464 223.239,202.631 222.5,202.5 Z"/></g>
<g><path style="opacity:1" fill="#f6f4ee" d="M 231.5,201.5 C 232.833,202.167 232.833,202.167 231.5,201.5 Z"/></g>
<g><path style="opacity:1" fill="#fcfaee" d="M 413.5,201.5 C 412.833,202.167 412.833,202.167 413.5,201.5 Z"/></g>
<g><path style="opacity:1" fill="#3d4043" d="M 230.5,203.5 C 232.027,203.427 233.027,204.094 233.5,205.5C 255.125,228.633 277.625,251.633 301,274.5C 301.698,277.004 302.531,279.337 303.5,281.5C 303.25,283.674 302.25,285.341 300.5,286.5C 278.7,306.792 257.033,327.958 235.5,350C 235.728,350.399 236.062,350.565 236.5,350.5C 235.421,352.543 233.754,353.876 231.5,354.5C 231.631,353.761 231.464,353.094 231,352.5C 228.162,353.675 225.329,353.509 222.5,352C 217.97,346.928 213.303,342.761 208.5,339.5C 204.713,335.49 204.546,331.156 208,326.5C 223.701,310.632 239.535,294.965 255.5,279.5C 256.239,279.631 256.906,279.464 257.5,279C 240.638,262.472 224.138,245.638 208,228.5C 207.21,225.366 207.543,222.366 209,219.5C 213.167,215.333 217.333,211.167 221.5,207C 224.459,205.396 227.459,204.229 230.5,203.5 Z"/></g>
<g><path style="opacity:1" fill="#faf6ef" d="M 693.5,205.5 C 694.525,205.897 694.692,206.563 694,207.5C 693.536,206.906 693.369,206.239 693.5,205.5 Z"/></g>
<g><path style="opacity:1" fill="#fef9ef" d="M 597.5,206.5 C 598.833,207.167 598.833,207.167 597.5,206.5 Z"/></g>
<g><path style="opacity:1" fill="#fdf9ef" d="M 212.5,207.5 C 213.833,208.167 213.833,208.167 212.5,207.5 Z"/></g>
<g><path style="opacity:1" fill="#f9f6ef" d="M 240.5,209.5 C 239.833,208.167 239.833,208.167 240.5,209.5 Z"/></g>
<g><path style="opacity:1" fill="#f8f6ee" d="M 240.5,209.5 C 241.167,209.5 241.5,209.833 241.5,210.5C 241.167,210.167 240.833,209.833 240.5,209.5 Z"/></g>
<g><path style="opacity:1" fill="#f6faef" d="M 596.5,210.5 C 595.833,209.167 595.833,209.167 596.5,210.5 Z"/></g>
<g><path style="opacity:1" fill="#faf8ed" d="M 241.5,210.5 C 242.167,210.5 242.5,210.833 242.5,211.5C 242.167,211.167 241.833,210.833 241.5,210.5 Z"/></g>
<g><path style="opacity:1" fill="#f8f1ea" d="M 242.5,211.5 C 243.833,212.167 243.833,212.167 242.5,211.5 Z"/></g>
<g><path style="opacity:1" fill="#fdfaef" d="M 175.5,212.5 C 176.833,213.167 176.833,213.167 175.5,212.5 Z"/></g>
<g><path style="opacity:1" fill="#fcf5ed" d="M 76.5,214.5 C 89.9938,213.339 103.66,213.173 117.5,214C 103.837,214.5 90.1707,214.667 76.5,214.5 Z"/></g>
<g><path style="opacity:1" fill="#f6f4ed" d="M 245.5,214.5 C 244.833,213.167 244.833,213.167 245.5,214.5 Z"/></g>
<g><path style="opacity:1" fill="#fbf6ef" d="M 436.5,213.5 C 437.833,214.167 437.833,214.167 436.5,213.5 Z"/></g>
<g><path style="opacity:1" fill="#f7f4ef" d="M 245.5,214.5 C 246.167,214.5 246.5,214.833 246.5,215.5C 246.167,215.167 245.833,214.833 245.5,214.5 Z"/></g>
<g><path style="opacity:1" fill="#f9fbef" d="M 689.5,214.5 C 690.833,215.167 690.833,215.167 689.5,214.5 Z"/></g>
<g><path style="opacity:1" fill="#faf8ed" d="M 246.5,215.5 C 247.833,216.167 247.833,216.167 246.5,215.5 Z"/></g>
<g><path style="opacity:1" fill="#fdf7ee" d="M 172.5,217.5 C 173.833,218.167 173.833,218.167 172.5,217.5 Z"/></g>
<g><path style="opacity:1" fill="#f8f6ef" d="M 248.5,217.5 C 249.833,218.167 249.833,218.167 248.5,217.5 Z"/></g>
<g><path style="opacity:1" fill="#fbf6ee" d="M 573.5,218.5 C 574.833,219.167 574.833,219.167 573.5,218.5 Z"/></g>
<g><path style="opacity:1" fill="#f7f3ee" d="M 250.5,219.5 C 251.833,220.167 251.833,220.167 250.5,219.5 Z"/></g>
<g><path style="opacity:1" fill="#faf5ec" d="M 433.5,219.5 C 434.833,220.167 434.833,220.167 433.5,219.5 Z"/></g>
<g><path style="opacity:1" fill="#fdfbef" d="M 67.5,220.5 C 68.8333,221.167 68.8333,221.167 67.5,220.5 Z"/></g>
<g><path style="opacity:1" fill="#f4f4ee" d="M 203.5,221.5 C 204.833,222.167 204.833,222.167 203.5,221.5 Z"/></g>
<g><path style="opacity:1" fill="#f7f3ef" d="M 253.5,222.5 C 252.833,221.167 252.833,221.167 253.5,222.5 Z"/></g>
<g><path style="opacity:1" fill="#faf9ef" d="M 255.5,221.5 C 256.833,222.167 256.833,222.167 255.5,221.5 Z"/></g>
<g><path style="opacity:1" fill="#faf9f0" d="M 580.5,220.5 C 581.525,220.897 581.692,221.563 581,222.5C 580.536,221.906 580.369,221.239 580.5,220.5 Z"/></g>
<g><path style="opacity:1" fill="#fcf9ef" d="M 66.5,222.5 C 67.8333,223.167 67.8333,223.167 66.5,222.5 Z"/></g>
<g><path style="opacity:1" fill="#f6f3ef" d="M 253.5,222.5 C 254.167,222.5 254.5,222.833 254.5,223.5C 254.167,223.167 253.833,222.833 253.5,222.5 Z"/></g>
<g><path style="opacity:1" fill="#fbf6ef" d="M 258.5,222.5 C 259.833,223.167 259.833,223.167 258.5,222.5 Z"/></g>
<g><path style="opacity:1" fill="#fcf9ee" d="M 169.5,223.5 C 170.833,224.167 170.833,224.167 169.5,223.5 Z"/></g>
<g><path style="opacity:1" fill="#f7f6ed" d="M 254.5,223.5 C 255.833,224.167 255.833,224.167 254.5,223.5 Z"/></g>
<g><path style="opacity:1" fill="#faf9ef" d="M 257.5,224.5 C 258.833,225.167 258.833,225.167 257.5,224.5 Z"/></g>
<g><path style="opacity:1" fill="#faf8ef" d="M 576.5,224.5 C 577.833,225.167 577.833,225.167 576.5,224.5 Z"/></g>
<g><path style="opacity:1" fill="#f7f3e8" d="M 257.5,225.5 C 256.833,226.167 256.833,226.167 257.5,225.5 Z"/></g>
<g><path style="opacity:1" fill="#f9f7ef" d="M 683.5,225.5 C 684.833,226.167 684.833,226.167 683.5,225.5 Z"/></g>
<g><path style="opacity:1" fill="#fdf7ee" d="M 167.5,226.5 C 168.833,227.167 168.833,227.167 167.5,226.5 Z"/></g>
<g><path style="opacity:1" fill="#f3f3ef" d="M 203.5,226.5 C 204.833,227.167 204.833,227.167 203.5,226.5 Z"/></g>
<g><path style="opacity:1" fill="#faf1eb" d="M 259.5,228.5 C 258.833,227.167 258.833,227.167 259.5,228.5 Z"/></g>
<g><path style="opacity:1" fill="#232324" d="M 230.5,203.5 C 227.459,204.229 224.459,205.396 221.5,207C 217.333,211.167 213.167,215.333 209,219.5C 207.543,222.366 207.21,225.366 208,228.5C 224.138,245.638 240.638,262.472 257.5,279C 256.906,279.464 256.239,279.631 255.5,279.5C 238.84,262.673 222.34,245.673 206,228.5C 205.21,225.366 205.543,222.366 207,219.5C 211.833,214.667 216.667,209.833 221.5,205C 224.351,203.711 227.351,203.211 230.5,203.5 Z"/></g>
<g><path style="opacity:1" fill="#f9f8ee" d="M 259.5,228.5 C 260.833,229.167 260.833,229.167 259.5,228.5 Z"/></g>
<g><path style="opacity:1" fill="#fbfbef" d="M 265.5,228.5 C 266.833,229.167 266.833,229.167 265.5,228.5 Z"/></g>
<g><path style="opacity:1" fill="#fdf9ef" d="M 557.5,228.5 C 558.833,229.167 558.833,229.167 557.5,228.5 Z"/></g>
<g><path style="opacity:1" fill="#fcf8ee" d="M 65.5,228.5 C 66.525,228.897 66.6917,229.563 66,230.5C 65.5357,229.906 65.369,229.239 65.5,228.5 Z"/></g>
<g><path style="opacity:1" fill="#fdf8ee" d="M 166.5,230.5 C 166.369,229.761 166.536,229.094 167,228.5C 167.692,229.437 167.525,230.103 166.5,230.5 Z"/></g>
<g><path style="opacity:1" fill="#fcf8ef" d="M 166.5,230.5 C 165.833,231.167 165.833,231.167 166.5,230.5 Z"/></g>
<g><path style="opacity:1" fill="#f8f5ef" d="M 424.5,231.5 C 425.833,232.167 425.833,232.167 424.5,231.5 Z"/></g>
<g><path style="opacity:1" fill="#fdf9ef" d="M 64.5,232.5 C 65.8333,233.167 65.8333,233.167 64.5,232.5 Z"/></g>
<g><path style="opacity:1" fill="#f9f8ef" d="M 263.5,232.5 C 264.833,233.167 264.833,233.167 263.5,232.5 Z"/></g>
<g><path style="opacity:1" fill="#fbf6ef" d="M 64.5,234.5 C 65.525,234.897 65.6917,235.563 65,236.5C 64.5357,235.906 64.369,235.239 64.5,234.5 Z"/></g>
<g><path style="opacity:1" fill="#fdf8f0" d="M 266.5,233.5 C 267.773,234.077 267.773,234.743 266.5,235.5C 265.537,235.03 265.537,234.363 266.5,233.5 Z"/></g>
<g><path style="opacity:1" fill="#f9f5ef" d="M 163.5,235.5 C 164.833,236.167 164.833,236.167 163.5,235.5 Z"/></g>
<g><path style="opacity:1" fill="#f8f6ee" d="M 546.5,235.5 C 547.833,236.167 547.833,236.167 546.5,235.5 Z"/></g>
<g><path style="opacity:1" fill="#faf6ef" d="M 563.5,236.5 C 562.833,235.167 562.833,235.167 563.5,236.5 Z"/></g>
<g><path style="opacity:1" fill="#fcf7ef" d="M 211.5,237.5 C 210.833,236.167 210.833,236.167 211.5,237.5 Z"/></g>
<g><path style="opacity:1" fill="#f6f6ee" d="M 211.5,237.5 C 212.833,238.167 212.833,238.167 211.5,237.5 Z"/></g>
<g><path style="opacity:1" fill="#faf6ee" d="M 63.5,238.5 C 64.8333,239.167 64.8333,239.167 63.5,238.5 Z"/></g>
<g><path style="opacity:1" fill="#0a0c0d" d="M 233.5,205.5 C 257.187,228.354 280.354,251.687 303,275.5C 303.495,277.473 303.662,279.473 303.5,281.5C 302.531,279.337 301.698,277.004 301,274.5C 277.625,251.633 255.125,228.633 233.5,205.5 Z"/></g>
<g><path style="opacity:1" fill="#f3f7ef" d="M 419.5,238.5 C 420.833,239.167 420.833,239.167 419.5,238.5 Z"/></g>
<g><path style="opacity:1" fill="#f9f4ec" d="M 556.5,239.5 C 557.833,240.167 557.833,240.167 556.5,239.5 Z"/></g>
<g><path style="opacity:1" fill="#f8f7ee" d="M 674.5,239.5 C 675.833,240.167 675.833,240.167 674.5,239.5 Z"/></g>
<g><path style="opacity:1" fill="#f9f8ef" d="M 161.5,240.5 C 162.833,241.167 162.833,241.167 161.5,240.5 Z"/></g>
<g><path style="opacity:1" fill="#f5f5ee" d="M 271.5,240.5 C 272.833,241.167 272.833,241.167 271.5,240.5 Z"/></g>
<g><path style="opacity:1" fill="#fbf9ef" d="M 418.5,240.5 C 419.833,241.167 419.833,241.167 418.5,240.5 Z"/></g>
<g><path style="opacity:1" fill="#fcf8ee" d="M 536.5,241.5 C 537.833,242.167 537.833,242.167 536.5,241.5 Z"/></g>
<g><path style="opacity:1" fill="#fdf9ef" d="M 160.5,242.5 C 161.525,242.897 161.692,243.563 161,244.5C 160.536,243.906 160.369,243.239 160.5,242.5 Z"/></g>
<g><path style="opacity:1" fill="#fdf7ee" d="M 62.5,243.5 C 63.525,243.897 63.6917,244.563 63,245.5C 62.5357,244.906 62.369,244.239 62.5,243.5 Z"/></g>
<g><path style="opacity:1" fill="#f9f8ef" d="M 218.5,244.5 C 217.833,243.167 217.833,243.167 218.5,244.5 Z"/></g>
<g><path style="opacity:1" fill="#f7f6ed" d="M 218.5,244.5 C 219.833,245.167 219.833,245.167 218.5,244.5 Z"/></g>
<g><path style="opacity:1" fill="#f8f3ef" d="M 275.5,244.5 C 276.833,245.167 276.833,245.167 275.5,244.5 Z"/></g>
<g><path style="opacity:1" fill="#fcfaef" d="M 281.5,244.5 C 282.833,245.167 282.833,245.167 281.5,244.5 Z"/></g>
<g><path style="opacity:1" fill="#fdf5ed" d="M 61.5,246.5 C 62.5983,247.601 62.765,248.934 62,250.5C 61.51,249.207 61.3433,247.873 61.5,246.5 Z"/></g>
<g><path style="opacity:1" fill="#fbf9ec" d="M 159.5,246.5 C 160.833,247.167 160.833,247.167 159.5,246.5 Z"/></g>
<g><path style="opacity:1" fill="#f5f1ec" d="M 278.5,247.5 C 277.833,246.167 277.833,246.167 278.5,247.5 Z"/></g>
<g><path style="opacity:1" fill="#faf8ef" d="M 546.5,246.5 C 547.833,247.167 547.833,247.167 546.5,246.5 Z"/></g>
<g><path style="opacity:1" fill="#f6f6ef" d="M 278.5,247.5 C 279.833,248.167 279.833,248.167 278.5,247.5 Z"/></g>
<g><path style="opacity:1" fill="#fbf9ee" d="M 158.5,248.5 C 159.833,249.167 159.833,249.167 158.5,248.5 Z"/></g>
<g><path style="opacity:1" fill="#f8f9ef" d="M 525.5,248.5 C 526.833,249.167 526.833,249.167 525.5,248.5 Z"/></g>
<g><path style="opacity:1" fill="#f9f7ed" d="M 60.5,252.5 C 61.8333,253.167 61.8333,253.167 60.5,252.5 Z"/></g>
<g><path style="opacity:1" fill="#fbf6ef" d="M 226.5,252.5 C 227.833,253.167 227.833,253.167 226.5,252.5 Z"/></g>
<g><path style="opacity:1" fill="#fcf7ed" d="M 157.5,252.5 C 158.525,252.897 158.692,253.563 158,254.5C 157.536,253.906 157.369,253.239 157.5,252.5 Z"/></g>
<g><path style="opacity:1" fill="#fdfbef" d="M 665.5,253.5 C 666.833,254.167 666.833,254.167 665.5,253.5 Z"/></g>
<g><path style="opacity:1" fill="#f9f7ef" d="M 288.5,255.5 C 289.833,256.167 289.833,256.167 288.5,255.5 Z"/></g>
<g><path style="opacity:1" fill="#f7f8ef" d="M 409.5,255.5 C 410.833,256.167 410.833,256.167 409.5,255.5 Z"/></g>
<g><path style="opacity:1" fill="#f7f3ed" d="M 288.5,256.5 C 288.5,256.833 288.5,257.167 288.5,257.5C 287.83,257.019 287.83,256.685 288.5,256.5 Z"/></g>
<g><path style="opacity:1" fill="#fcf6ed" d="M 156.5,257.5 C 157.833,258.167 157.833,258.167 156.5,257.5 Z"/></g>
<g><path style="opacity:1" fill="#fbf7ed" d="M 288.5,257.5 C 289.167,257.5 289.5,257.833 289.5,258.5C 289.167,258.167 288.833,257.833 288.5,257.5 Z"/></g>
<g><path style="opacity:1" fill="#f7f4ec" d="M 289.5,258.5 C 290.167,258.5 290.5,258.833 290.5,259.5C 290.167,259.167 289.833,258.833 289.5,258.5 Z"/></g>
<g><path style="opacity:1" fill="#f9f5ef" d="M 234.5,260.5 C 233.833,259.167 233.833,259.167 234.5,260.5 Z"/></g>
<g><path style="opacity:1" fill="#f6f8ef" d="M 290.5,259.5 C 291.167,259.5 291.5,259.833 291.5,260.5C 291.167,260.167 290.833,259.833 290.5,259.5 Z"/></g>
<g><path style="opacity:1" fill="#f8f5ea" d="M 234.5,260.5 C 235.167,260.5 235.5,260.833 235.5,261.5C 235.167,261.167 234.833,260.833 234.5,260.5 Z"/></g>
<g><path style="opacity:1" fill="#f3f5ef" d="M 291.5,260.5 C 292.833,261.167 292.833,261.167 291.5,260.5 Z"/></g>
<g><path style="opacity:1" fill="#fcf6ef" d="M 58.5,261.5 C 59.5735,262.251 59.7401,263.251 59,264.5C 58.5172,263.552 58.3505,262.552 58.5,261.5 Z"/></g>
<g><path style="opacity:1" fill="#fbf6ed" d="M 155.5,260.5 C 156.573,261.251 156.74,262.251 156,263.5C 155.517,262.552 155.351,261.552 155.5,260.5 Z"/></g>
<g><path style="opacity:1" fill="#f4f3ea" d="M 235.5,261.5 C 236.833,262.167 236.833,262.167 235.5,261.5 Z"/></g>
<g><path style="opacity:1" fill="#faf9ef" d="M 295.5,262.5 C 296.833,263.167 296.833,263.167 295.5,262.5 Z"/></g>
<g><path style="opacity:1" fill="#fbf6ef" d="M 504.5,262.5 C 505.833,263.167 505.833,263.167 504.5,262.5 Z"/></g>
<g><path style="opacity:1" fill="#faf8ef" d="M 238.5,264.5 C 237.833,263.167 237.833,263.167 238.5,264.5 Z"/></g>
<g><path style="opacity:1" fill="#faf7ed" d="M 238.5,264.5 C 239.167,264.5 239.5,264.833 239.5,265.5C 239.167,265.167 238.833,264.833 238.5,264.5 Z"/></g>
<g><path style="opacity:1" fill="#f8f7ef" d="M 501.5,264.5 C 502.833,265.167 502.833,265.167 501.5,264.5 Z"/></g>
<g><path style="opacity:1" fill="#fbf8ef" d="M 239.5,265.5 C 240.167,265.5 240.5,265.833 240.5,266.5C 240.167,266.167 239.833,265.833 239.5,265.5 Z"/></g>
<g><path style="opacity:1" fill="#f7f6ef" d="M 296.5,265.5 C 297.833,266.167 297.833,266.167 296.5,265.5 Z"/></g>
<g><path style="opacity:1" fill="#f9f6ed" d="M 154.5,266.5 C 155.833,267.167 155.833,267.167 154.5,266.5 Z"/></g>
<g><path style="opacity:1" fill="#f6f4eb" d="M 240.5,266.5 C 241.833,267.167 241.833,267.167 240.5,266.5 Z"/></g>
<g><path style="opacity:1" fill="#f6f8ef" d="M 403.5,267.5 C 404.525,267.897 404.692,268.563 404,269.5C 403.536,268.906 403.369,268.239 403.5,267.5 Z"/></g>
<g><path style="opacity:1" fill="#f8f6ee" d="M 243.5,269.5 C 242.833,268.167 242.833,268.167 243.5,269.5 Z"/></g>
<g><path style="opacity:1" fill="#fdf6ed" d="M 57.5,268.5 C 58.525,268.897 58.6917,269.563 58,270.5C 57.5357,269.906 57.369,269.239 57.5,268.5 Z"/></g>
<g><path style="opacity:1" fill="#f5f5ef" d="M 243.5,269.5 C 244.833,270.167 244.833,270.167 243.5,269.5 Z"/></g>
<g><path style="opacity:1" fill="#fbfbef" d="M 153.5,271.5 C 154.833,272.167 154.833,272.167 153.5,271.5 Z"/></g>
<g><path style="opacity:1" fill="#fbf8ef" d="M 57.5,276.5 C 56.8333,275.167 56.8333,275.167 57.5,276.5 Z"/></g>
<g><path style="opacity:1" fill="#fbf9ef" d="M 153.5,275.5 C 154.833,276.167 154.833,276.167 153.5,275.5 Z"/></g>
<g><path style="opacity:1" fill="#f9f3ef" d="M 305.5,276.5 C 304.475,276.103 304.308,275.437 305,274.5C 305.464,275.094 305.631,275.761 305.5,276.5 Z"/></g>
<g><path style="opacity:1" fill="#f5f4ef" d="M 400.5,275.5 C 401.833,276.167 401.833,276.167 400.5,275.5 Z"/></g>
<g><path style="opacity:1" fill="#fdfaec" d="M 57.5,276.5 C 58.8333,277.167 58.8333,277.167 57.5,276.5 Z"/></g>
<g><path style="opacity:1" fill="#fbf9ee" d="M 305.5,276.5 C 306.573,277.251 306.74,278.251 306,279.5C 305.517,278.552 305.351,277.552 305.5,276.5 Z"/></g>
<g><path style="opacity:1" fill="#f3f4ef" d="M 252.5,278.5 C 253.833,279.167 253.833,279.167 252.5,278.5 Z"/></g>
<g><path style="opacity:1" fill="#fcfbee" d="M 59.5,279.5 C 60.8333,280.167 60.8333,280.167 59.5,279.5 Z"/></g>
<g><path style="opacity:1" fill="#faf9ef" d="M 398.5,279.5 C 399.833,280.167 399.833,280.167 398.5,279.5 Z"/></g>
<g><path style="opacity:1" fill="#cc4915" d="M 152.5,268.5 C 152.354,272.519 152.021,276.519 151.5,280.5C 150.671,287.655 150.171,294.989 150,302.5C 148.991,290.063 149.657,277.729 152,265.5C 152.483,266.448 152.649,267.448 152.5,268.5 Z"/></g>
<g><path style="opacity:1" fill="#fcf9ef" d="M 482.5,281.5 C 483.833,282.167 483.833,282.167 482.5,281.5 Z"/></g>
<g><path style="opacity:1" fill="#f6f3ed" d="M 304.5,282.5 C 305.833,283.167 305.833,283.167 304.5,282.5 Z"/></g>
<g><path style="opacity:1" fill="#fcf4ef" d="M 152.5,283.5 C 153.525,283.897 153.692,284.563 153,285.5C 152.536,284.906 152.369,284.239 152.5,283.5 Z"/></g>
<g><path style="opacity:1" fill="#faf7ef" d="M 625.5,284.5 C 626.833,285.167 626.833,285.167 625.5,284.5 Z"/></g>
<g><path style="opacity:1" fill="#faf8ef" d="M 70.5,285.5 C 71.8333,286.167 71.8333,286.167 70.5,285.5 Z"/></g>
<g><path style="opacity:1" fill="#faf5ef" d="M 396.5,285.5 C 397.833,286.167 397.833,286.167 396.5,285.5 Z"/></g>
<g><path style="opacity:1" fill="#faf8ef" d="M 152.5,286.5 C 153.833,287.167 153.833,287.167 152.5,286.5 Z"/></g>
<g><path style="opacity:1" fill="#f9f8ef" d="M 620.5,287.5 C 620.897,286.475 621.563,286.308 622.5,287C 621.906,287.464 621.239,287.631 620.5,287.5 Z"/></g>
<g><path style="opacity:1" fill="#fef9ec" d="M 73.5,287.5 C 74.8333,288.167 74.8333,288.167 73.5,287.5 Z"/></g>
<g><path style="opacity:1" fill="#fcf6ef" d="M 152.5,289.5 C 153.525,289.897 153.692,290.563 153,291.5C 152.536,290.906 152.369,290.239 152.5,289.5 Z"/></g>
<g><path style="opacity:1" fill="#fbf3ee" d="M 395.5,288.5 C 396.525,288.897 396.692,289.563 396,290.5C 395.536,289.906 395.369,289.239 395.5,288.5 Z"/></g>
<g><path style="opacity:1" fill="#f6faec" d="M 609.5,289.5 C 610.833,290.167 610.833,290.167 609.5,289.5 Z"/></g>
<g><path style="opacity:1" fill="#f6f6ef" d="M 605.5,290.5 C 606.833,291.167 606.833,291.167 605.5,290.5 Z"/></g>
<g><path style="opacity:1" fill="#faf8ef" d="M 609.5,290.5 C 608.833,291.167 608.833,291.167 609.5,290.5 Z"/></g>
<g><path style="opacity:1" fill="#faf7ee" d="M 239.5,291.5 C 240.833,292.167 240.833,292.167 239.5,291.5 Z"/></g>
<g><path style="opacity:1" fill="#f7f6ef" d="M 603.5,291.5 C 604.833,292.167 604.833,292.167 603.5,291.5 Z"/></g>
<g><path style="opacity:1" fill="#fcf8ef" d="M 84.5,292.5 C 85.8333,293.167 85.8333,293.167 84.5,292.5 Z"/></g>
<g><path style="opacity:1" fill="#f9f5ef" d="M 466.5,292.5 C 467.833,293.167 467.833,293.167 466.5,292.5 Z"/></g>
<g><path style="opacity:1" fill="#fdf9ee" d="M 483.5,292.5 C 484.833,293.167 484.833,293.167 483.5,292.5 Z"/></g>
<g><path style="opacity:1" fill="#f9f8ef" d="M 596.5,292.5 C 597.833,293.167 597.833,293.167 596.5,292.5 Z"/></g>
<g><path style="opacity:1" fill="#fcf8ef" d="M 600.5,293.5 C 600.897,292.475 601.563,292.308 602.5,293C 601.906,293.464 601.239,293.631 600.5,293.5 Z"/></g>
<g><path style="opacity:1" fill="#faf6ee" d="M 612.5,292.5 C 613.833,293.167 613.833,293.167 612.5,292.5 Z"/></g>
<g><path style="opacity:1" fill="#f5f8ee" d="M 631.5,292.5 C 632.833,293.167 632.833,293.167 631.5,292.5 Z"/></g>
<g><path style="opacity:1" fill="#fcf8ef" d="M 86.5,293.5 C 87.8333,294.167 87.8333,294.167 86.5,293.5 Z"/></g>
<g><path style="opacity:1" fill="#f8f4f0" d="M 394.5,292.5 C 395.525,292.897 395.692,293.563 395,294.5C 394.536,293.906 394.369,293.239 394.5,292.5 Z"/></g>
<g><path style="opacity:1" fill="#f0f2eb" d="M 592.5,294.5 C 592.897,293.475 593.563,293.308 594.5,294C 593.906,294.464 593.239,294.631 592.5,294.5 Z"/></g>
<g><path style="opacity:1" fill="#f9f4ef" d="M 623.5,294.5 C 624.601,293.402 625.934,293.235 627.5,294C 626.207,294.49 624.873,294.657 623.5,294.5 Z"/></g>
<g><path style="opacity:1" fill="#f9f8ef" d="M 628.5,292.5 C 629.525,292.897 629.692,293.563 629,294.5C 628.536,293.906 628.369,293.239 628.5,292.5 Z"/></g>
<g><path style="opacity:1" fill="#f9f8ee" d="M 609.5,295.5 C 609.897,294.475 610.563,294.308 611.5,295C 610.906,295.464 610.239,295.631 609.5,295.5 Z"/></g>
<g><path style="opacity:1" fill="#f8f7ef" d="M 615.5,294.5 C 616.833,295.167 616.833,295.167 615.5,294.5 Z"/></g>
<g><path style="opacity:1" fill="#fefcef" d="M 91.5,295.5 C 92.8333,296.167 92.8333,296.167 91.5,295.5 Z"/></g>
<g><path style="opacity:1" fill="#f8f7ef" d="M 463.5,295.5 C 464.833,296.167 464.833,296.167 463.5,295.5 Z"/></g>
<g><path style="opacity:1" fill="#f8f3ee" d="M 292.5,296.5 C 293.833,297.167 293.833,297.167 292.5,296.5 Z"/></g>
<g><path style="opacity:1" fill="#f6f5ee" d="M 393.5,295.5 C 394.525,295.897 394.692,296.563 394,297.5C 393.536,296.906 393.369,296.239 393.5,295.5 Z"/></g>
<g><path style="opacity:1" fill="#fbf7ef" d="M 292.5,297.5 C 291.833,298.167 291.833,298.167 292.5,297.5 Z"/></g>
<g><path style="opacity:1" fill="#f7f3f0" d="M 392.5,299.5 C 393.525,299.897 393.692,300.563 393,301.5C 392.536,300.906 392.369,300.239 392.5,299.5 Z"/></g>
<g><path style="opacity:1" fill="#f8f7ed" d="M 286.5,302.5 C 287.833,303.167 287.833,303.167 286.5,302.5 Z"/></g>
<g><path style="opacity:1" fill="#fcf7ef" d="M 473.5,304.5 C 474.833,305.167 474.833,305.167 473.5,304.5 Z"/></g>
<g><path style="opacity:1" fill="#f5f7ed" d="M 452.5,305.5 C 453.833,306.167 453.833,306.167 452.5,305.5 Z"/></g>
<g><path style="opacity:1" fill="#fcf6ef" d="M 281.5,307.5 C 282.833,308.167 282.833,308.167 281.5,307.5 Z"/></g>
<g><path style="opacity:1" fill="#fcf9ef" d="M 153.5,308.5 C 154.833,309.167 154.833,309.167 153.5,308.5 Z"/></g>
<g><path style="opacity:1" fill="#faf6ec" d="M 101.5,308.5 C 102.622,310.288 102.789,312.288 102,314.5C 101.505,312.527 101.338,310.527 101.5,308.5 Z"/></g>
<g><path style="opacity:1" fill="#f6f7ed" d="M 390.5,309.5 C 391.833,310.167 391.833,310.167 390.5,309.5 Z"/></g>
<g><path style="opacity:1" fill="#f5f4ed" d="M 274.5,314.5 C 275.833,315.167 275.833,315.167 274.5,314.5 Z"/></g>
<g><path style="opacity:1" fill="#fcfaef" d="M 101.5,315.5 C 102.833,316.167 102.833,316.167 101.5,315.5 Z"/></g>
<g><path style="opacity:1" fill="#f6f9ed" d="M 154.5,317.5 C 155.833,318.167 155.833,318.167 154.5,317.5 Z"/></g>
<g><path style="opacity:1" fill="#faf2ea" d="M 156.5,323.5 C 155.402,322.399 155.235,321.066 156,319.5C 156.49,320.793 156.657,322.127 156.5,323.5 Z"/></g>
<g><path style="opacity:1" fill="#f9f7ef" d="M 267.5,321.5 C 268.833,322.167 268.833,322.167 267.5,321.5 Z"/></g>
<g><path style="opacity:1" fill="#f7f7ed" d="M 267.5,322.5 C 266.833,323.167 266.833,323.167 267.5,322.5 Z"/></g>
<g><path style="opacity:1" fill="#f5f1ea" d="M 304.5,323.5 C 320.995,322.338 337.662,322.172 354.5,323C 337.837,323.5 321.17,323.667 304.5,323.5 Z"/></g>
<g><path style="opacity:1" fill="#f9f7ef" d="M 355.5,322.5 C 356.833,323.167 356.833,323.167 355.5,322.5 Z"/></g>
<g><path style="opacity:1" fill="#fbf7ef" d="M 156.5,323.5 C 157.598,324.601 157.765,325.934 157,327.5C 156.51,326.207 156.343,324.873 156.5,323.5 Z"/></g>
<g><path style="opacity:1" fill="#f9f3ee" d="M 266.5,323.5 C 265.833,324.167 265.833,324.167 266.5,323.5 Z"/></g>
<g><path style="opacity:1" fill="#f9f7ee" d="M 357.5,323.5 C 358.833,324.167 358.833,324.167 357.5,323.5 Z"/></g>
<g><path style="opacity:1" fill="#f4f2ed" d="M 301.5,324.5 C 302.833,325.167 302.833,325.167 301.5,324.5 Z"/></g>
<g><path style="opacity:1" fill="#292a2b" d="M 357.5,326.5 C 339.992,326.83 322.659,326.497 305.5,325.5C 321.995,324.338 338.662,324.172 355.5,325C 356.416,325.278 357.082,325.778 357.5,326.5 Z"/></g>
<g><path style="opacity:1" fill="#faf9ef" d="M 609.5,325.5 C 610.833,326.167 610.833,326.167 609.5,325.5 Z"/></g>
<g><path style="opacity:1" fill="#3c4043" d="M 305.5,325.5 C 322.659,326.497 339.992,326.83 357.5,326.5C 358.492,326.328 359.158,326.662 359.5,327.5C 358.761,327.369 358.094,327.536 357.5,328C 359.742,329.986 360.742,332.486 360.5,335.5C 359.873,341.155 359.373,346.821 359,352.5C 358.692,353.308 358.192,353.975 357.5,354.5C 339.372,355.154 321.372,355.821 303.5,356.5C 301.827,355.657 300.66,354.324 300,352.5C 299.333,344.833 299.333,337.167 300,329.5C 301.451,327.536 303.284,326.203 305.5,325.5 Z"/></g>
<g><path style="opacity:1" fill="#f8f5ef" d="M 387.5,326.5 C 388.573,327.251 388.74,328.251 388,329.5C 387.517,328.552 387.351,327.552 387.5,326.5 Z"/></g>
<g><path style="opacity:1" fill="#121314" d="M 300.5,286.5 C 279.5,308.167 258.167,329.5 236.5,350.5C 236.062,350.565 235.728,350.399 235.5,350C 257.033,327.958 278.7,306.792 300.5,286.5 Z"/></g>
<g><path style="opacity:1" fill="#faf5ed" d="M 157.5,329.5 C 158.525,329.897 158.692,330.563 158,331.5C 157.536,330.906 157.369,330.239 157.5,329.5 Z"/></g>
<g><path style="opacity:1" fill="#fdf9ef" d="M 104.5,332.5 C 105.833,333.167 105.833,333.167 104.5,332.5 Z"/></g>
<g><path style="opacity:1" fill="#277276" d="M 485.5,296.5 C 485.938,296.435 486.272,296.601 486.5,297C 473.941,309.732 461.607,321.898 449.5,333.5C 460.591,320.287 472.591,307.953 485.5,296.5 Z"/></g>
<g><path style="opacity:1" fill="#faf8ef" d="M 158.5,333.5 C 159.833,334.167 159.833,334.167 158.5,333.5 Z"/></g>
<g><path style="opacity:1" fill="#f6f3ed" d="M 203.5,332.5 C 204.573,333.251 204.74,334.251 204,335.5C 203.517,334.552 203.351,333.552 203.5,332.5 Z"/></g>
<g><path style="opacity:1" fill="#f9f5f0" d="M 296.5,334.5 C 297.525,334.897 297.692,335.563 297,336.5C 296.536,335.906 296.369,335.239 296.5,334.5 Z"/></g>
<g><path style="opacity:1" fill="#f6f4ed" d="M 253.5,335.5 C 254.833,336.167 254.833,336.167 253.5,335.5 Z"/></g>
<g><path style="opacity:1" fill="#fbf4ee" d="M 159.5,335.5 C 160.525,335.897 160.692,336.563 160,337.5C 159.536,336.906 159.369,336.239 159.5,335.5 Z"/></g>
<g><path style="opacity:1" fill="#f8f4ee" d="M 386.5,332.5 C 387.634,334.966 387.801,337.633 387,340.5C 386.503,337.854 386.336,335.187 386.5,332.5 Z"/></g>
<g><path style="opacity:1" fill="#faf3ea" d="M 424.5,337.5 C 425.833,338.167 425.833,338.167 424.5,337.5 Z"/></g>
<g><path style="opacity:1" fill="#fcf7ef" d="M 105.5,338.5 C 106.833,339.167 106.833,339.167 105.5,338.5 Z"/></g>
<g><path style="opacity:1" fill="#fff6ef" d="M 160.5,338.5 C 161.525,338.897 161.692,339.563 161,340.5C 160.536,339.906 160.369,339.239 160.5,338.5 Z"/></g>
<g><path style="opacity:1" fill="#fcfaef" d="M 426.5,338.5 C 427.833,339.167 427.833,339.167 426.5,338.5 Z"/></g>
<g><path style="opacity:1" fill="#faf7ef" d="M 249.5,339.5 C 250.833,340.167 250.833,340.167 249.5,339.5 Z"/></g>
<g><path style="opacity:1" fill="#f9f6ee" d="M 296.5,339.5 C 297.833,340.167 297.833,340.167 296.5,339.5 Z"/></g>
<g><path style="opacity:1" fill="#f7f7ef" d="M 249.5,340.5 C 248.833,341.167 248.833,341.167 249.5,340.5 Z"/></g>
<g><path style="opacity:1" fill="#151616" d="M 231.5,354.5 C 228.178,355.145 224.845,354.645 221.5,353C 216.963,348.631 212.63,344.131 208.5,339.5C 213.303,342.761 217.97,346.928 222.5,352C 225.329,353.509 228.162,353.675 231,352.5C 231.464,353.094 231.631,353.761 231.5,354.5 Z"/></g>
<g><path style="opacity:1" fill="#f8f7ef" d="M 296.5,342.5 C 297.833,343.167 297.833,343.167 296.5,342.5 Z"/></g>
<g><path style="opacity:1" fill="#fcf7ee" d="M 105.5,343.5 C 106.833,344.167 106.833,344.167 105.5,343.5 Z"/></g>
<g><path style="opacity:1" fill="#f8f4ed" d="M 363.5,331.5 C 364.653,337.319 364.819,343.319 364,349.5C 363.501,343.509 363.334,337.509 363.5,331.5 Z"/></g>
<g><path style="opacity:1" fill="#faf9ef" d="M 244.5,346.5 C 243.833,345.167 243.833,345.167 244.5,346.5 Z"/></g>
<g><path style="opacity:1" fill="#fbf7ef" d="M 244.5,346.5 C 245.833,347.167 245.833,347.167 244.5,346.5 Z"/></g>
<g><path style="opacity:1" fill="#faf7ef" d="M 296.5,346.5 C 297.525,346.897 297.692,347.563 297,348.5C 296.536,347.906 296.369,347.239 296.5,346.5 Z"/></g>
<g><path style="opacity:1" fill="#faf6ef" d="M 163.5,347.5 C 164.833,348.167 164.833,348.167 163.5,347.5 Z"/></g>
<g><path style="opacity:1" fill="#fcf8ee" d="M 586.5,347.5 C 587.833,348.167 587.833,348.167 586.5,347.5 Z"/></g>
<g><path style="opacity:1" fill="#faf6ef" d="M 214.5,348.5 C 215.833,349.167 215.833,349.167 214.5,348.5 Z"/></g>
<g><path style="opacity:1" fill="#faf6ed" d="M 363.5,350.5 C 364.833,351.167 364.833,351.167 363.5,350.5 Z"/></g>
<g><path style="opacity:1" fill="#f9f6ef" d="M 385.5,349.5 C 386.573,350.251 386.74,351.251 386,352.5C 385.517,351.552 385.351,350.552 385.5,349.5 Z"/></g>
<g><path style="opacity:1" fill="#f8f7ee" d="M 237.5,351.5 C 238.833,352.167 238.833,352.167 237.5,351.5 Z"/></g>
<g><path style="opacity:1" fill="#fbfbef" d="M 415.5,351.5 C 416.833,352.167 416.833,352.167 415.5,351.5 Z"/></g>
<g><path style="opacity:1" fill="#f9f4ef" d="M 218.5,352.5 C 219.833,353.167 219.833,353.167 218.5,352.5 Z"/></g>
<g><path style="opacity:1" fill="#f9f5ed" d="M 297.5,352.5 C 298.833,353.167 298.833,353.167 297.5,352.5 Z"/></g>
<g><path style="opacity:1" fill="#f7f6ef" d="M 223.5,355.5 C 224.833,356.167 224.833,356.167 223.5,355.5 Z"/></g>
<g><path style="opacity:1" fill="#f6f5ee" d="M 231.5,356.5 C 231.897,355.475 232.563,355.308 233.5,356C 232.906,356.464 232.239,356.631 231.5,356.5 Z"/></g>
<g><path style="opacity:1" fill="#f9f5ef" d="M 227.5,357.5 C 228.251,356.427 229.251,356.26 230.5,357C 229.552,357.483 228.552,357.649 227.5,357.5 Z"/></g>
<g><path style="opacity:1" fill="#1c1c1f" d="M 359.5,327.5 C 368.524,354.816 358.857,364.816 330.5,357.5C 321.425,357.487 312.425,357.154 303.5,356.5C 321.372,355.821 339.372,355.154 357.5,354.5C 358.192,353.975 358.692,353.308 359,352.5C 359.373,346.821 359.873,341.155 360.5,335.5C 360.742,332.486 359.742,329.986 357.5,328C 358.094,327.536 358.761,327.369 359.5,327.5 Z"/></g>
<g><path style="opacity:1" fill="#f8f8ef" d="M 305.5,358.5 C 306.833,359.167 306.833,359.167 305.5,358.5 Z"/></g>
<g><path style="opacity:1" fill="#f9f8ef" d="M 349.5,359.5 C 350.833,360.167 350.833,360.167 349.5,359.5 Z"/></g>
<g><path style="opacity:1" fill="#f7f5ee" d="M 385.5,353.5 C 386.641,356.64 386.808,359.973 386,363.5C 385.502,360.183 385.335,356.85 385.5,353.5 Z"/></g>
<g><path style="opacity:1" fill="#f6f7ef" d="M 424.5,361.5 C 425.833,362.167 425.833,362.167 424.5,361.5 Z"/></g>
<g><path style="opacity:1" fill="#fefaef" d="M 85.5,363.5 C 86.8333,364.167 86.8333,364.167 85.5,363.5 Z"/></g>
<g><path style="opacity:1" fill="#fbf6ec" d="M 171.5,363.5 C 172.833,364.167 172.833,364.167 171.5,363.5 Z"/></g>
<g><path style="opacity:1" fill="#f7f6ef" d="M 385.5,364.5 C 386.833,365.167 386.833,365.167 385.5,364.5 Z"/></g>
<g><path style="opacity:1" fill="#f7f6ef" d="M 403.5,366.5 C 404.833,367.167 404.833,367.167 403.5,366.5 Z"/></g>
<g><path style="opacity:1" fill="#fcf4ee" d="M 173.5,367.5 C 174.833,368.167 174.833,368.167 173.5,367.5 Z"/></g>
<g><path style="opacity:1" fill="#f9f6f0" d="M 385.5,366.5 C 386.573,367.251 386.74,368.251 386,369.5C 385.517,368.552 385.351,367.552 385.5,366.5 Z"/></g>
<g><path style="opacity:1" fill="#fbf9ef" d="M 553.5,369.5 C 554.833,370.167 554.833,370.167 553.5,369.5 Z"/></g>
<g><path style="opacity:1" fill="#f7f2ed" d="M 417.5,371.5 C 418.833,372.167 418.833,372.167 417.5,371.5 Z"/></g>
<g><path style="opacity:1" fill="#f9f7ef" d="M 414.5,376.5 C 415.833,377.167 415.833,377.167 414.5,376.5 Z"/></g>
<g><path style="opacity:1" fill="#fbf6ef" d="M 72.5,377.5 C 73.525,377.897 73.6917,378.563 73,379.5C 72.5357,378.906 72.369,378.239 72.5,377.5 Z"/></g>
<g><path style="opacity:1" fill="#fcf8ed" d="M 180.5,377.5 C 181.833,378.167 181.833,378.167 180.5,377.5 Z"/></g>
<g><path style="opacity:1" fill="#faf4ec" d="M 395.5,379.5 C 396.833,380.167 396.833,380.167 395.5,379.5 Z"/></g>
<g><path style="opacity:1" fill="#fdf9ee" d="M 72.5,381.5 C 73.8333,382.167 73.8333,382.167 72.5,381.5 Z"/></g>
<g><path style="opacity:1" fill="#fbfbef" d="M 73.5,383.5 C 74.8333,384.167 74.8333,384.167 73.5,383.5 Z"/></g>
<g><path style="opacity:1" fill="#f8f4ed" d="M 386.5,380.5 C 387.629,382.628 387.796,384.961 387,387.5C 386.503,385.19 386.337,382.857 386.5,380.5 Z"/></g>
<g><path style="opacity:1" fill="#adc9c9" d="M 388.5,380.5 C 389.167,382.5 389.833,384.5 390.5,386.5C 390.44,387.043 390.107,387.376 389.5,387.5C 388.526,385.257 388.192,382.924 388.5,380.5 Z"/></g>
<g><path style="opacity:1" fill="#fbfaef" d="M 75.5,388.5 C 76.8333,389.167 76.8333,389.167 75.5,388.5 Z"/></g>
<g><path style="opacity:1" fill="#f7f7ef" d="M 404.5,393.5 C 405.833,394.167 405.833,394.167 404.5,393.5 Z"/></g>
<g><path style="opacity:1" fill="#fefaef" d="M 195.5,395.5 C 194.833,394.167 194.833,394.167 195.5,395.5 Z"/></g>
<g><path style="opacity:1" fill="#faf7ee" d="M 506.5,394.5 C 507.833,395.167 507.833,395.167 506.5,394.5 Z"/></g>
<g><path style="opacity:1" fill="#f9f5ec" d="M 195.5,395.5 C 196.833,396.167 196.833,396.167 195.5,395.5 Z"/></g>
<g><path style="opacity:1" fill="#fdf9ed" d="M 80.5,397.5 C 81.8333,398.167 81.8333,398.167 80.5,397.5 Z"/></g>
<g><path style="opacity:1" fill="#f8f6ef" d="M 402.5,397.5 C 403.833,398.167 403.833,398.167 402.5,397.5 Z"/></g>
<g><path style="opacity:1" fill="#fef8ee" d="M 199.5,399.5 C 200.833,400.167 200.833,400.167 199.5,399.5 Z"/></g>
<g><path style="opacity:1" fill="#fcf7ef" d="M 495.5,399.5 C 496.833,400.167 496.833,400.167 495.5,399.5 Z"/></g>
<g><path style="opacity:1" fill="#faf8ef" d="M 495.5,400.5 C 494.833,401.167 494.833,401.167 495.5,400.5 Z"/></g>
<g><path style="opacity:1" fill="#fbf5ef" d="M 491.5,401.5 C 492.833,402.167 492.833,402.167 491.5,401.5 Z"/></g>
<g><path style="opacity:1" fill="#fefeed" d="M 202.5,402.5 C 203.833,403.167 203.833,403.167 202.5,402.5 Z"/></g>
<g><path style="opacity:1" fill="#f9f7ee" d="M 489.5,402.5 C 490.833,403.167 490.833,403.167 489.5,402.5 Z"/></g>
<g><path style="opacity:1" fill="#fbf7ee" d="M 84.5,404.5 C 85.8333,405.167 85.8333,405.167 84.5,404.5 Z"/></g>
<g><path style="opacity:1" fill="#fef9ef" d="M 396.5,405.5 C 397.833,406.167 397.833,406.167 396.5,405.5 Z"/></g>
<g><path style="opacity:1" fill="#fbf5ec" d="M 85.5,406.5 C 86.8333,407.167 86.8333,407.167 85.5,406.5 Z"/></g>
<g><path style="opacity:1" fill="#f9f6ef" d="M 459.5,415.5 C 460.833,416.167 460.833,416.167 459.5,415.5 Z"/></g>
<g><path style="opacity:1" fill="#fef8ed" d="M 221.5,416.5 C 222.833,417.167 222.833,417.167 221.5,416.5 Z"/></g>
<g><path style="opacity:1" fill="#fdf9ee" d="M 224.5,418.5 C 223.833,417.167 223.833,417.167 224.5,418.5 Z"/></g>
<g><path style="opacity:1" fill="#fdf6ef" d="M 224.5,419.5 C 224.5,419.167 224.5,418.833 224.5,418.5C 227.167,418.833 227.167,419.167 224.5,419.5 Z"/></g>
<g><path style="opacity:1" fill="#fefaed" d="M 228.5,420.5 C 229.833,421.167 229.833,421.167 228.5,420.5 Z"/></g>
<g><path style="opacity:1" fill="#fcf8ee" d="M 145.5,421.5 C 146.833,422.167 146.833,422.167 145.5,421.5 Z"/></g>
<g><path style="opacity:1" fill="#fdfbea" d="M 230.5,421.5 C 231.833,422.167 231.833,422.167 230.5,421.5 Z"/></g>
<g><path style="opacity:1" fill="#fcf9ed" d="M 93.5,422.5 C 94.8333,423.167 94.8333,423.167 93.5,422.5 Z"/></g>
<g><path style="opacity:1" fill="#f9f8ef" d="M 142.5,422.5 C 143.833,423.167 143.833,423.167 142.5,422.5 Z"/></g>
<g><path style="opacity:1" fill="#fcf8ef" d="M 370.5,422.5 C 371.833,423.167 371.833,423.167 370.5,422.5 Z"/></g>
<g><path style="opacity:1" fill="#faf8ef" d="M 445.5,422.5 C 446.833,423.167 446.833,423.167 445.5,422.5 Z"/></g>
<g><path style="opacity:1" fill="#fbf8ef" d="M 238.5,423.5 C 239.833,424.167 239.833,424.167 238.5,423.5 Z"/></g>
<g><path style="opacity:1" fill="#fef9ef" d="M 133.5,425.5 C 134.833,426.167 134.833,426.167 133.5,425.5 Z"/></g>
<g><path style="opacity:1" fill="#fdf9ee" d="M 359.5,425.5 C 360.833,426.167 360.833,426.167 359.5,425.5 Z"/></g>
<g><path style="opacity:1" fill="#fef6ed" d="M 240.5,426.5 C 241.833,427.167 241.833,427.167 240.5,426.5 Z"/></g>
<g><path style="opacity:1" fill="#fcf8ef" d="M 368.5,426.5 C 369.833,427.167 369.833,427.167 368.5,426.5 Z"/></g>
<g><path style="opacity:1" fill="#fbf6ee" d="M 353.5,428.5 C 353.897,427.475 354.563,427.308 355.5,428C 354.906,428.464 354.239,428.631 353.5,428.5 Z"/></g>
<g><path style="opacity:1" fill="#fef5ec" d="M 366.5,427.5 C 367.833,428.167 367.833,428.167 366.5,427.5 Z"/></g>
<g><path style="opacity:1" fill="#fefbef" d="M 96.5,428.5 C 97.8333,429.167 97.8333,429.167 96.5,428.5 Z"/></g>
<g><path style="opacity:1" fill="#fdf8ef" d="M 123.5,429.5 C 123.897,428.475 124.563,428.308 125.5,429C 124.906,429.464 124.239,429.631 123.5,429.5 Z"/></g>
<g><path style="opacity:1" fill="#fdf6ec" d="M 351.5,428.5 C 352.833,429.167 352.833,429.167 351.5,428.5 Z"/></g>
<g><path style="opacity:1" fill="#faf8ef" d="M 436.5,428.5 C 437.833,429.167 437.833,429.167 436.5,428.5 Z"/></g>
<g><path style="opacity:1" fill="#d66533" d="M 87.5,365.5 C 84.2625,369.248 80.7625,372.915 77,376.5C 76.3333,378.833 76.3333,381.167 77,383.5C 85.2067,397.914 92.8733,412.581 100,427.5C 101.907,428.93 104.074,429.596 106.5,429.5C 113.434,428.279 120.268,426.613 127,424.5C 127.765,424.57 128.265,424.903 128.5,425.5C 121.302,428.176 113.802,430.176 106,431.5C 103.186,431.592 100.853,430.592 99,428.5C 90.4205,412.507 82.2538,396.341 74.5,380C 77.2466,373.753 81.58,368.92 87.5,365.5 Z"/></g>
<g><path style="opacity:1" fill="#f9f6ef" d="M 120.5,429.5 C 121.833,430.167 121.833,430.167 120.5,429.5 Z"/></g>
<g><path style="opacity:1" fill="#fcf7ee" d="M 247.5,430.5 C 247.897,429.475 248.563,429.308 249.5,430C 248.906,430.464 248.239,430.631 247.5,430.5 Z"/></g>
<g><path style="opacity:1" fill="#fcf6ef" d="M 365.5,431.5 C 365.369,430.761 365.536,430.094 366,429.5C 366.692,430.437 366.525,431.103 365.5,431.5 Z"/></g>
<g><path style="opacity:1" fill="#fbf9ef" d="M 115.5,430.5 C 116.833,431.167 116.833,431.167 115.5,430.5 Z"/></g>
<g><path style="opacity:1" fill="#fefaef" d="M 344.5,430.5 C 345.833,431.167 345.833,431.167 344.5,430.5 Z"/></g>
<g><path style="opacity:1" fill="#fdf9ef" d="M 111.5,432.5 C 111.897,431.475 112.563,431.308 113.5,432C 112.906,432.464 112.239,432.631 111.5,432.5 Z"/></g>
<g><path style="opacity:1" fill="#fcf7ed" d="M 342.5,431.5 C 343.833,432.167 343.833,432.167 342.5,431.5 Z"/></g>
<g><path style="opacity:1" fill="#fcf4ef" d="M 365.5,431.5 C 365.631,432.239 365.464,432.906 365,433.5C 364.308,432.563 364.475,431.897 365.5,431.5 Z"/></g>
<g><path style="opacity:1" fill="#fef8ef" d="M 339.5,433.5 C 339.897,432.475 340.563,432.308 341.5,433C 340.906,433.464 340.239,433.631 339.5,433.5 Z"/></g>
<g><path style="opacity:1" fill="#fcf7ed" d="M 260.5,434.5 C 260.897,433.475 261.563,433.308 262.5,434C 261.906,434.464 261.239,434.631 260.5,434.5 Z"/></g>
<g><path style="opacity:1" fill="#fbf5ec" d="M 334.5,434.5 C 334.897,433.475 335.563,433.308 336.5,434C 335.906,434.464 335.239,434.631 334.5,434.5 Z"/></g>
<g><path style="opacity:1" fill="#fdf6ee" d="M 263.5,435.5 C 263.897,434.475 264.563,434.308 265.5,435C 264.906,435.464 264.239,435.631 263.5,435.5 Z"/></g>
<g><path style="opacity:1" fill="#fcf5ed" d="M 329.5,435.5 C 330.601,434.402 331.934,434.235 333.5,435C 332.207,435.49 330.873,435.657 329.5,435.5 Z"/></g>
<g><path style="opacity:1" fill="#fbf5ed" d="M 363.5,434.5 C 364.833,435.167 364.833,435.167 363.5,434.5 Z"/></g>
<g><path style="opacity:1" fill="#fcf5ec" d="M 268.5,436.5 C 269.601,435.402 270.934,435.235 272.5,436C 271.207,436.49 269.873,436.657 268.5,436.5 Z"/></g>
<g><path style="opacity:1" fill="#fbf5eb" d="M 329.5,435.5 C 328.054,436.613 326.387,436.78 324.5,436C 326.134,435.506 327.801,435.34 329.5,435.5 Z"/></g>
<g><path style="opacity:1" fill="#f7f6ee" d="M 274.5,436.5 C 275.833,437.167 275.833,437.167 274.5,436.5 Z"/></g>
<g><path style="opacity:1" fill="#fbf9ef" d="M 276.5,436.5 C 277.833,437.167 277.833,437.167 276.5,436.5 Z"/></g>
<g><path style="opacity:1" fill="#fcf7ef" d="M 320.5,437.5 C 321.251,436.427 322.251,436.26 323.5,437C 322.552,437.483 321.552,437.649 320.5,437.5 Z"/></g>
<g><path style="opacity:1" fill="#fdfbef" d="M 165.5,437.5 C 165.5,437.833 165.5,438.167 165.5,438.5C 164.83,438.019 164.83,437.685 165.5,437.5 Z"/></g>
<g><path style="opacity:1" fill="#fcf7ee" d="M 280.5,438.5 C 281.946,437.387 283.613,437.22 285.5,438C 283.866,438.494 282.199,438.66 280.5,438.5 Z"/></g>
<g><path style="opacity:1" fill="#fbf7ef" d="M 310.5,438.5 C 311.601,437.402 312.934,437.235 314.5,438C 313.207,438.49 311.873,438.657 310.5,438.5 Z"/></g>
<g><path style="opacity:1" fill="#f8f7ee" d="M 315.5,437.5 C 316.833,438.167 316.833,438.167 315.5,437.5 Z"/></g>
<g><path style="opacity:1" fill="#fdfbee" d="M 292.5,438.5 C 293.833,439.167 293.833,439.167 292.5,438.5 Z"/></g>
<g><path style="opacity:1" fill="#fdf7ee" d="M 297.5,438.5 C 298.833,439.167 298.833,439.167 297.5,438.5 Z"/></g>
<g><path style="opacity:1" fill="#faf6ef" d="M 299.5,439.5 C 299.897,438.475 300.563,438.308 301.5,439C 300.906,439.464 300.239,439.631 299.5,439.5 Z"/></g>
<g><path style="opacity:1" fill="#faf5ee" d="M 302.5,439.5 C 303.251,438.427 304.251,438.26 305.5,439C 304.552,439.483 303.552,439.649 302.5,439.5 Z"/></g>
<g><path style="opacity:1" fill="#fef8ee" d="M 307.5,438.5 C 308.833,439.167 308.833,439.167 307.5,438.5 Z"/></g>
<g><path style="opacity:1" fill="#fdf8ef" d="M 165.5,438.5 C 166.833,439.167 166.833,439.833 165.5,440.5C 165.5,439.833 165.5,439.167 165.5,438.5 Z"/></g>
<g><path style="opacity:1" fill="#fbfcee" d="M 165.5,440.5 C 164.833,441.167 164.833,441.167 165.5,440.5 Z"/></g>
<g><path style="opacity:1" fill="#f9f5ef" d="M 381.5,440.5 C 382.833,441.167 382.833,441.167 381.5,440.5 Z"/></g>
<g><path style="opacity:1" fill="#d3662b" d="M 326.5,438.5 C 327.552,438.351 328.552,438.517 329.5,439C 323.893,440.323 318.226,441.323 312.5,442C 314.833,442.333 317.167,442.667 319.5,443C 318.128,443.402 316.795,443.902 315.5,444.5C 314.205,443.902 312.872,443.402 311.5,443C 300.472,442.749 289.472,442.082 278.5,441C 280.473,440.505 282.473,440.338 284.5,440.5C 298.555,440.794 312.555,440.128 326.5,438.5 Z"/></g>
<g><path style="opacity:1" fill="#fef5ef" d="M 172.5,444.5 C 173.833,445.167 173.833,445.167 172.5,444.5 Z"/></g>
<g><path style="opacity:1" fill="#f7faed" d="M 379.5,445.5 C 380.833,446.167 380.833,446.167 379.5,445.5 Z"/></g>
<g><path style="opacity:1" fill="#fcfaef" d="M 359.5,446.5 C 360.833,447.167 360.833,447.167 359.5,446.5 Z"/></g>
<g><path style="opacity:1" fill="#f7f7ee" d="M 378.5,447.5 C 379.833,448.167 379.833,448.167 378.5,447.5 Z"/></g>
<g><path style="opacity:1" fill="#fbfaef" d="M 358.5,448.5 C 359.833,449.167 359.833,449.167 358.5,448.5 Z"/></g>
<g><path style="opacity:1" fill="#fbf7ef" d="M 357.5,452.5 C 358.833,453.167 358.833,453.167 357.5,452.5 Z"/></g>
<g><path style="opacity:1" fill="#f6f6ee" d="M 376.5,452.5 C 377.833,453.167 377.833,453.167 376.5,452.5 Z"/></g>
<g><path style="opacity:1" fill="#fcf7ef" d="M 178.5,454.5 C 179.833,455.167 179.833,455.167 178.5,454.5 Z"/></g>
<g><path style="opacity:1" fill="#fcf7ee" d="M 356.5,458.5 C 356.343,457.127 356.51,455.793 357,454.5C 357.765,456.066 357.598,457.399 356.5,458.5 Z"/></g>
<g><path style="opacity:1" fill="#f7f6ef" d="M 409.5,457.5 C 410.833,458.167 410.833,458.167 409.5,457.5 Z"/></g>
<g><path style="opacity:1" fill="#fcf5ef" d="M 177.5,458.5 C 178.525,458.897 178.692,459.563 178,460.5C 177.536,459.906 177.369,459.239 177.5,458.5 Z"/></g>
<g><path style="opacity:1" fill="#f9f6ef" d="M 374.5,458.5 C 375.833,459.167 375.833,459.167 374.5,458.5 Z"/></g>
<g><path style="opacity:1" fill="#fcf4ea" d="M 356.5,458.5 C 356.631,459.239 356.464,459.906 356,460.5C 355.308,459.563 355.475,458.897 356.5,458.5 Z"/></g>
<g><path style="opacity:1" fill="#fcf9ef" d="M 354.5,461.5 C 355.833,462.167 355.833,462.167 354.5,461.5 Z"/></g>
<g><path style="opacity:1" fill="#f9f9ef" d="M 354.5,463.5 C 355.833,464.167 355.833,464.167 354.5,463.5 Z"/></g>
<g><path style="opacity:1" fill="#fbf7ef" d="M 176.5,465.5 C 177.525,465.897 177.692,466.563 177,467.5C 176.536,466.906 176.369,466.239 176.5,465.5 Z"/></g>
<g><path style="opacity:1" fill="#fcfbef" d="M 353.5,467.5 C 354.833,468.167 354.833,468.167 353.5,467.5 Z"/></g>
<g><path style="opacity:1" fill="#fbf4ed" d="M 371.5,467.5 C 372.833,468.167 372.833,468.167 371.5,467.5 Z"/></g>
<g><path style="opacity:1" fill="#fef8ec" d="M 175.5,470.5 C 176.833,471.167 176.833,471.167 175.5,470.5 Z"/></g>
<g><path style="opacity:1" fill="#fbf8ee" d="M 352.5,469.5 C 353.573,470.251 353.74,471.251 353,472.5C 352.517,471.552 352.351,470.552 352.5,469.5 Z"/></g>
<g><path style="opacity:1" fill="#f7f3ef" d="M 370.5,470.5 C 371.833,471.167 371.833,471.167 370.5,470.5 Z"/></g>
<g><path style="opacity:1" fill="#f6f5ee" d="M 403.5,470.5 C 404.833,471.167 404.833,471.167 403.5,470.5 Z"/></g>
<g><path style="opacity:1" fill="#faf7ed" d="M 175.5,472.5 C 176.833,473.167 176.833,473.167 175.5,472.5 Z"/></g>
<g><path style="opacity:1" fill="#fcf7ef" d="M 351.5,473.5 C 352.525,473.897 352.692,474.563 352,475.5C 351.536,474.906 351.369,474.239 351.5,473.5 Z"/></g>
<g><path style="opacity:1" fill="#f7f5ef" d="M 369.5,474.5 C 370.833,475.167 370.833,475.167 369.5,474.5 Z"/></g>
<g><path style="opacity:1" fill="#faf5ee" d="M 401.5,477.5 C 402.833,478.167 402.833,478.167 401.5,477.5 Z"/></g>
<g><path style="opacity:1" fill="#fbf6ec" d="M 350.5,478.5 C 351.833,479.167 351.833,479.167 350.5,478.5 Z"/></g>
<g><path style="opacity:1" fill="#faf7ef" d="M 173.5,482.5 C 174.833,483.167 174.833,483.167 173.5,482.5 Z"/></g>
<g><path style="opacity:1" fill="#fcfaef" d="M 350.5,481.5 C 351.773,482.077 351.773,482.743 350.5,483.5C 349.537,483.03 349.537,482.363 350.5,481.5 Z"/></g>
<g><path style="opacity:1" fill="#fef6ef" d="M 349.5,484.5 C 350.525,484.897 350.692,485.563 350,486.5C 349.536,485.906 349.369,485.239 349.5,484.5 Z"/></g>
<g><path style="opacity:1" fill="#faf8ef" d="M 399.5,485.5 C 400.833,486.167 400.833,486.167 399.5,485.5 Z"/></g>
<g><path style="opacity:1" fill="#fdf7ee" d="M 263.5,488.5 C 264.601,487.402 265.934,487.235 267.5,488C 266.207,488.49 264.873,488.657 263.5,488.5 Z"/></g>
<g><path style="opacity:1" fill="#f6f4ef" d="M 366.5,487.5 C 367.833,488.167 367.833,488.167 366.5,487.5 Z"/></g>
<g><path style="opacity:1" fill="#fef8ef" d="M 270.5,489.5 C 270.897,488.475 271.563,488.308 272.5,489C 271.906,489.464 271.239,489.631 270.5,489.5 Z"/></g>
<g><path style="opacity:1" fill="#faf8ee" d="M 273.5,489.5 C 273.897,488.475 274.563,488.308 275.5,489C 274.906,489.464 274.239,489.631 273.5,489.5 Z"/></g>
<g><path style="opacity:1" fill="#f7f7ef" d="M 398.5,488.5 C 399.833,489.167 399.833,489.167 398.5,488.5 Z"/></g>
<g><path style="opacity:1" fill="#fef8ed" d="M 172.5,489.5 C 173.833,490.167 173.833,490.167 172.5,489.5 Z"/></g>
<g><path style="opacity:1" fill="#fcfbed" d="M 258.5,489.5 C 259.833,490.167 259.833,490.167 258.5,489.5 Z"/></g>
<g><path style="opacity:1" fill="#fdf8ef" d="M 284.5,489.5 C 285.833,490.167 285.833,490.167 284.5,489.5 Z"/></g>
<g><path style="opacity:1" fill="#fefbef" d="M 289.5,490.5 C 289.897,489.475 290.563,489.308 291.5,490C 290.906,490.464 290.239,490.631 289.5,490.5 Z"/></g>
<g><path style="opacity:1" fill="#fcf8ef" d="M 348.5,490.5 C 349.525,490.897 349.692,491.563 349,492.5C 348.536,491.906 348.369,491.239 348.5,490.5 Z"/></g>
<g><path style="opacity:1" fill="#fdfcef" d="M 256.5,492.5 C 257.833,493.167 257.833,493.167 256.5,492.5 Z"/></g>
<g><path style="opacity:1" fill="#fef9ef" d="M 258.5,493.5 C 259.833,494.167 259.833,494.167 258.5,493.5 Z"/></g>
<g><path style="opacity:1" fill="#fbf7ee" d="M 303.5,492.5 C 304.525,492.897 304.692,493.563 304,494.5C 303.536,493.906 303.369,493.239 303.5,492.5 Z"/></g>
<g><path style="opacity:1" fill="#fcf5ed" d="M 347.5,493.5 C 348.525,493.897 348.692,494.563 348,495.5C 347.536,494.906 347.369,494.239 347.5,493.5 Z"/></g>
<g><path style="opacity:1" fill="#faf7ef" d="M 364.5,494.5 C 365.833,495.167 365.833,495.167 364.5,494.5 Z"/></g>
<g><path style="opacity:1" fill="#faf8ee" d="M 253.5,496.5 C 254.833,497.167 254.833,497.167 253.5,496.5 Z"/></g>
<g><path style="opacity:1" fill="#fcfbed" d="M 255.5,496.5 C 256.833,497.167 256.833,497.167 255.5,496.5 Z"/></g>
<g><path style="opacity:1" fill="#fef8ef" d="M 304.5,497.5 C 305.573,498.251 305.74,499.251 305,500.5C 304.517,499.552 304.351,498.552 304.5,497.5 Z"/></g>
<g><path style="opacity:1" fill="#f7f5ed" d="M 396.5,496.5 C 397.613,497.946 397.78,499.613 397,501.5C 396.506,499.866 396.34,498.199 396.5,496.5 Z"/></g>
<g><path style="opacity:1" fill="#f9f6ee" d="M 364.5,497.5 C 365.525,497.897 365.692,498.563 365,499.5C 364.536,498.906 364.369,498.239 364.5,497.5 Z"/></g>
<g><path style="opacity:1" fill="#fdfaee" d="M 250.5,501.5 C 251.773,502.077 251.773,502.743 250.5,503.5C 249.537,503.03 249.537,502.363 250.5,501.5 Z"/></g>
<g><path style="opacity:1" fill="#fcf5ee" d="M 305.5,501.5 C 306.573,502.251 306.74,503.251 306,504.5C 305.517,503.552 305.351,502.552 305.5,501.5 Z"/></g>
<g><path style="opacity:1" fill="#f9f6ef" d="M 345.5,503.5 C 346.525,503.897 346.692,504.563 346,505.5C 345.536,504.906 345.369,504.239 345.5,503.5 Z"/></g>
<g><path style="opacity:1" fill="#fcf7ef" d="M 306.5,505.5 C 307.525,505.897 307.692,506.563 307,507.5C 306.536,506.906 306.369,506.239 306.5,505.5 Z"/></g>
<g><path style="opacity:1" fill="#f7f4ed" d="M 395.5,504.5 C 396.622,506.288 396.789,508.288 396,510.5C 395.505,508.527 395.338,506.527 395.5,504.5 Z"/></g>
<g><path style="opacity:1" fill="#fff8ee" d="M 345.5,506.5 C 346.525,506.897 346.692,507.563 346,508.5C 345.536,507.906 345.369,507.239 345.5,506.5 Z"/></g>
<g><path style="opacity:1" fill="#fbf6ed" d="M 344.5,509.5 C 345.598,510.601 345.765,511.934 345,513.5C 344.51,512.207 344.343,510.873 344.5,509.5 Z"/></g>
<g><path style="opacity:1" fill="#fefaeb" d="M 242.5,512.5 C 243.833,513.167 243.833,513.167 242.5,512.5 Z"/></g>
<g><path style="opacity:1" fill="#fbf7ef" d="M 214.5,517.5 C 215.833,518.167 215.833,518.167 214.5,517.5 Z"/></g>
<g><path style="opacity:1" fill="#fef8ef" d="M 239.5,517.5 C 240.833,518.167 240.833,518.167 239.5,517.5 Z"/></g>
<g><path style="opacity:1" fill="#fdf8ef" d="M 343.5,517.5 C 344.598,518.601 344.765,519.934 344,521.5C 343.51,520.207 343.343,518.873 343.5,517.5 Z"/></g>
<g><path style="opacity:1" fill="#f9faef" d="M 309.5,518.5 C 310.833,519.167 310.833,519.167 309.5,518.5 Z"/></g>
<g><path style="opacity:1" fill="#fcf8ef" d="M 218.5,519.5 C 219.833,520.167 219.833,520.167 218.5,519.5 Z"/></g>
<g><path style="opacity:1" fill="#f6f7ef" d="M 361.5,519.5 C 362.833,520.167 362.833,520.167 361.5,519.5 Z"/></g>
<g><path style="opacity:1" fill="#fbf7ee" d="M 310.5,522.5 C 311.833,523.167 311.833,523.167 310.5,522.5 Z"/></g>
<g><path style="opacity:1" fill="#f5f5ee" d="M 361.5,522.5 C 362.598,523.601 362.765,524.934 362,526.5C 361.51,525.207 361.343,523.873 361.5,522.5 Z"/></g>
<g><path style="opacity:1" fill="#fcf7ed" d="M 342.5,524.5 C 343.598,525.601 343.765,526.934 343,528.5C 342.51,527.207 342.343,525.873 342.5,524.5 Z"/></g>
<g><path style="opacity:1" fill="#fcf7ea" d="M 311.5,527.5 C 312.833,528.167 312.833,528.167 311.5,527.5 Z"/></g>
<g><path style="opacity:1" fill="#f4f7ef" d="M 361.5,527.5 C 362.833,528.167 362.833,528.167 361.5,527.5 Z"/></g>
<g><path style="opacity:1" fill="#f7f8ef" d="M 372.5,527.5 C 373.833,528.167 373.833,528.167 372.5,527.5 Z"/></g>
<g><path style="opacity:1" fill="#c84103" d="M 340.5,528.5 C 340.5,530.5 340.5,532.5 340.5,534.5C 333.833,534.5 327.167,534.5 320.5,534.5C 326.31,533.51 332.31,533.177 338.5,533.5C 338.933,530.834 339.433,528.168 340,525.5C 340.483,526.448 340.649,527.448 340.5,528.5 Z"/></g>
<g><path style="opacity:1" fill="#fef8ef" d="M 334.5,536.5 C 335.833,537.167 335.833,537.167 334.5,536.5 Z"/></g>
</svg>
